<svg width="127" height="11253" viewBox="0 0 127 11253" fill="none" xmlns="http://www.w3.org/2000/svg">
<rect width="126.065" height="11250.3" transform="translate(0 2)" fill="#42424A"/>
<path d="M0 0.000366211V625.303H126.065V0.000366211H0Z" fill="#FDE829"/>
<path d="M9 0.000366211V625.303H116.312V0.000366211H9Z" fill="#42424A"/>
<path d="M59 38.9121H66.0381V16.0003H59V38.9121Z" fill="white"/>
<path d="M59 91H66.0381V68.0914H59V91Z" fill="white"/>
<path d="M59 143H66.0381V120.088H59V143Z" fill="white"/>
<path d="M59 195H66.0381V172.088H59V195Z" fill="white"/>
<path d="M59 246H65.867V223.648H59V246Z" fill="white"/>
<path d="M59 297H65.867V274.645H59V297Z" fill="white"/>
<path d="M59 349H66.0381V326.091H59V349Z" fill="white"/>
<path d="M59 401H66.0381V378.088H59V401Z" fill="white"/>
<path d="M59 453H66.0381V430.087H59V453Z" fill="white"/>
<path d="M59 505H66.0381V482.092H59V505Z" fill="white"/>
<path d="M59 557H66.0381V534.088H59V557Z" fill="white"/>
<path d="M59 609H66.0381V586.091H59V609Z" fill="white"/>
<path d="M0 625V1250.3H126.065V625H0Z" fill="#FDE829"/>
<path d="M9 625V1250.3H116.312V625H9Z" fill="#42424A"/>
<path d="M59 663.912H66.0381V641H59V663.912Z" fill="white"/>
<path d="M59 716H66.0381V693.091H59V716Z" fill="white"/>
<path d="M59 768H66.0381V745.088H59V768Z" fill="white"/>
<path d="M59 820H66.0381V797.088H59V820Z" fill="white"/>
<path d="M59 871H65.867V848.648H59V871Z" fill="white"/>
<path d="M59 922H65.867V899.645H59V922Z" fill="white"/>
<path d="M59 974H66.0381V951.091H59V974Z" fill="white"/>
<path d="M59 1026H66.0381V1003.09H59V1026Z" fill="white"/>
<path d="M59 1078H66.0381V1055.09H59V1078Z" fill="white"/>
<path d="M59 1130H66.0381V1107.09H59V1130Z" fill="white"/>
<path d="M59 1182H66.0381V1159.09H59V1182Z" fill="white"/>
<path d="M59 1234H66.0381V1211.09H59V1234Z" fill="white"/>
<path d="M0 1250V1875.3H126.065V1250H0Z" fill="#FDE829"/>
<path d="M9 1250V1875.3H116.312V1250H9Z" fill="#42424A"/>
<path d="M59 1288.91H66.0381V1266H59V1288.91Z" fill="white"/>
<path d="M59 1341H66.0381V1318.09H59V1341Z" fill="white"/>
<path d="M59 1393H66.0381V1370.09H59V1393Z" fill="white"/>
<path d="M59 1445H66.0381V1422.09H59V1445Z" fill="white"/>
<path d="M59 1496H65.867V1473.65H59V1496Z" fill="white"/>
<path d="M59 1547H65.867V1524.65H59V1547Z" fill="white"/>
<path d="M59 1599H66.0381V1576.09H59V1599Z" fill="white"/>
<path d="M59 1651H66.0381V1628.09H59V1651Z" fill="white"/>
<path d="M59 1703H66.0381V1680.09H59V1703Z" fill="white"/>
<path d="M59 1755H66.0381V1732.09H59V1755Z" fill="white"/>
<path d="M59 1807H66.0381V1784.09H59V1807Z" fill="white"/>
<path d="M59 1859H66.0381V1836.09H59V1859Z" fill="white"/>
<path d="M0 1875V2500.3H126.065V1875H0Z" fill="#FDE829"/>
<path d="M9 1875V2500.3H116.312V1875H9Z" fill="#42424A"/>
<path d="M59 1913.91H66.0381V1891H59V1913.91Z" fill="white"/>
<path d="M59 1966H66.0381V1943.09H59V1966Z" fill="white"/>
<path d="M59 2018H66.0381V1995.09H59V2018Z" fill="white"/>
<path d="M59 2070H66.0381V2047.09H59V2070Z" fill="white"/>
<path d="M59 2121H65.867V2098.65H59V2121Z" fill="white"/>
<path d="M59 2172H65.867V2149.65H59V2172Z" fill="white"/>
<path d="M59 2224H66.0381V2201.09H59V2224Z" fill="white"/>
<path d="M59 2276H66.0381V2253.09H59V2276Z" fill="white"/>
<path d="M59 2328H66.0381V2305.09H59V2328Z" fill="white"/>
<path d="M59 2380H66.0381V2357.09H59V2380Z" fill="white"/>
<path d="M59 2432H66.0381V2409.09H59V2432Z" fill="white"/>
<path d="M59 2484H66.0381V2461.09H59V2484Z" fill="white"/>
<path d="M0 2500V3125.3H126.065V2500H0Z" fill="#FDE829"/>
<path d="M9 2500V3125.3H116.312V2500H9Z" fill="#42424A"/>
<path d="M59 2538.91H66.0381V2516H59V2538.91Z" fill="white"/>
<path d="M59 2591H66.0381V2568.09H59V2591Z" fill="white"/>
<path d="M59 2643H66.0381V2620.09H59V2643Z" fill="white"/>
<path d="M59 2695H66.0381V2672.09H59V2695Z" fill="white"/>
<path d="M59 2746H65.867V2723.65H59V2746Z" fill="white"/>
<path d="M59 2797H65.867V2774.65H59V2797Z" fill="white"/>
<path d="M59 2849H66.0381V2826.09H59V2849Z" fill="white"/>
<path d="M59 2901H66.0381V2878.09H59V2901Z" fill="white"/>
<path d="M59 2953H66.0381V2930.09H59V2953Z" fill="white"/>
<path d="M59 3005H66.0381V2982.09H59V3005Z" fill="white"/>
<path d="M59 3057H66.0381V3034.09H59V3057Z" fill="white"/>
<path d="M59 3109H66.0381V3086.09H59V3109Z" fill="white"/>
<path d="M0 3125V3750.3H126.065V3125H0Z" fill="#FDE829"/>
<path d="M9 3125V3750.3H116.312V3125H9Z" fill="#42424A"/>
<path d="M59 3163.91H66.0381V3141H59V3163.91Z" fill="white"/>
<path d="M59 3216H66.0381V3193.09H59V3216Z" fill="white"/>
<path d="M59 3268H66.0381V3245.09H59V3268Z" fill="white"/>
<path d="M59 3320H66.0381V3297.09H59V3320Z" fill="white"/>
<path d="M59 3371H65.867V3348.65H59V3371Z" fill="white"/>
<path d="M59 3422H65.867V3399.65H59V3422Z" fill="white"/>
<path d="M59 3474H66.0381V3451.09H59V3474Z" fill="white"/>
<path d="M59 3526H66.0381V3503.09H59V3526Z" fill="white"/>
<path d="M59 3578H66.0381V3555.09H59V3578Z" fill="white"/>
<path d="M59 3630H66.0381V3607.09H59V3630Z" fill="white"/>
<path d="M59 3682H66.0381V3659.09H59V3682Z" fill="white"/>
<path d="M59 3734H66.0381V3711.09H59V3734Z" fill="white"/>
<path d="M0 3750V4375.3H126.065V3750H0Z" fill="#FDE829"/>
<path d="M9 3750V4375.3H116.312V3750H9Z" fill="#42424A"/>
<path d="M59 3788.91H66.0381V3766H59V3788.91Z" fill="white"/>
<path d="M59 3841H66.0381V3818.09H59V3841Z" fill="white"/>
<path d="M59 3893H66.0381V3870.09H59V3893Z" fill="white"/>
<path d="M59 3945H66.0381V3922.09H59V3945Z" fill="white"/>
<path d="M59 3996H65.867V3973.65H59V3996Z" fill="white"/>
<path d="M59 4047H65.867V4024.65H59V4047Z" fill="white"/>
<path d="M59 4099H66.0381V4076.09H59V4099Z" fill="white"/>
<path d="M59 4151H66.0381V4128.09H59V4151Z" fill="white"/>
<path d="M59 4203H66.0381V4180.09H59V4203Z" fill="white"/>
<path d="M59 4255H66.0381V4232.09H59V4255Z" fill="white"/>
<path d="M59 4307H66.0381V4284.09H59V4307Z" fill="white"/>
<path d="M59 4359H66.0381V4336.09H59V4359Z" fill="white"/>
<path d="M0 4375V5000.3H126.065V4375H0Z" fill="#FDE829"/>
<path d="M9 4375V5000.3H116.312V4375H9Z" fill="#42424A"/>
<path d="M59 4413.91H66.0381V4391H59V4413.91Z" fill="white"/>
<path d="M59 4466H66.0381V4443.09H59V4466Z" fill="white"/>
<path d="M59 4518H66.0381V4495.09H59V4518Z" fill="white"/>
<path d="M59 4570H66.0381V4547.09H59V4570Z" fill="white"/>
<path d="M59 4621H65.867V4598.65H59V4621Z" fill="white"/>
<path d="M59 4672H65.867V4649.65H59V4672Z" fill="white"/>
<path d="M59 4724H66.0381V4701.09H59V4724Z" fill="white"/>
<path d="M59 4776H66.0381V4753.09H59V4776Z" fill="white"/>
<path d="M59 4828H66.0381V4805.09H59V4828Z" fill="white"/>
<path d="M59 4880H66.0381V4857.09H59V4880Z" fill="white"/>
<path d="M59 4932H66.0381V4909.09H59V4932Z" fill="white"/>
<path d="M59 4984H66.0381V4961.09H59V4984Z" fill="white"/>
<path d="M0 5000V5625.3H126.065V5000H0Z" fill="#FDE829"/>
<path d="M9 5000V5625.3H116.312V5000H9Z" fill="#42424A"/>
<path d="M59 5038.91H66.0381V5016H59V5038.91Z" fill="white"/>
<path d="M59 5091H66.0381V5068.09H59V5091Z" fill="white"/>
<path d="M59 5143H66.0381V5120.09H59V5143Z" fill="white"/>
<path d="M59 5195H66.0381V5172.09H59V5195Z" fill="white"/>
<path d="M59 5246H65.867V5223.65H59V5246Z" fill="white"/>
<path d="M59 5297H65.867V5274.65H59V5297Z" fill="white"/>
<path d="M59 5349H66.0381V5326.09H59V5349Z" fill="white"/>
<path d="M59 5401H66.0381V5378.09H59V5401Z" fill="white"/>
<path d="M59 5453H66.0381V5430.09H59V5453Z" fill="white"/>
<path d="M59 5505H66.0381V5482.09H59V5505Z" fill="white"/>
<path d="M59 5557H66.0381V5534.09H59V5557Z" fill="white"/>
<path d="M59 5609H66.0381V5586.09H59V5609Z" fill="white"/>
<rect x="11" y="377.312" width="103" height="41" fill="#42424A"/>
<g opacity="0.9" filter="url(#filter0_b_986_2468)">
<path d="M19.6504 408.381H24.813V376H19.6504V408.381Z" fill="white"/>
</g>
<g opacity="0.9" filter="url(#filter1_b_986_2468)">
<path d="M33.0732 408.381H38.2358V376H33.0732V408.381Z" fill="white"/>
</g>
<g opacity="0.9" filter="url(#filter2_b_986_2468)">
<path d="M46.4961 408.381H51.6587V376H46.4961V408.381Z" fill="white"/>
</g>
<g opacity="0.9" filter="url(#filter3_b_986_2468)">
<path d="M59.9189 408.381H65.0815V376H59.9189V408.381Z" fill="white"/>
</g>
<g opacity="0.9" filter="url(#filter4_b_986_2468)">
<path d="M73.3408 408.381H78.5034V376H73.3408V408.381Z" fill="white"/>
</g>
<g opacity="0.9" filter="url(#filter5_b_986_2468)">
<path d="M86.7646 408.381H91.9272V376H86.7646V408.381Z" fill="white"/>
</g>
<g opacity="0.9" filter="url(#filter6_b_986_2468)">
<path d="M100.187 408.381H105.349V376H100.187V408.381Z" fill="white"/>
</g>
<path d="M0 5627V6252.3H126.065V5627H0Z" fill="#FDE829"/>
<path d="M9 5627V6252.3H116.312V5627H9Z" fill="#42424A"/>
<path d="M59 5665.91H66.0381V5643H59V5665.91Z" fill="white"/>
<path d="M59 5718H66.0381V5695.09H59V5718Z" fill="white"/>
<path d="M59 5770H66.0381V5747.09H59V5770Z" fill="white"/>
<path d="M59 5822H66.0381V5799.09H59V5822Z" fill="white"/>
<path d="M59 5873H65.867V5850.65H59V5873Z" fill="white"/>
<path d="M59 5924H65.867V5901.65H59V5924Z" fill="white"/>
<path d="M59 5976H66.0381V5953.09H59V5976Z" fill="white"/>
<path d="M59 6028H66.0381V6005.09H59V6028Z" fill="white"/>
<path d="M59 6080H66.0381V6057.09H59V6080Z" fill="white"/>
<path d="M59 6132H66.0381V6109.09H59V6132Z" fill="white"/>
<path d="M59 6184H66.0381V6161.09H59V6184Z" fill="white"/>
<path d="M59 6236H66.0381V6213.09H59V6236Z" fill="white"/>
<path d="M0 6252V6877.3H126.065V6252H0Z" fill="#FDE829"/>
<path d="M9 6252V6877.3H116.312V6252H9Z" fill="#42424A"/>
<path d="M59 6290.91H66.0381V6268H59V6290.91Z" fill="white"/>
<path d="M59 6343H66.0381V6320.09H59V6343Z" fill="white"/>
<path d="M59 6395H66.0381V6372.09H59V6395Z" fill="white"/>
<path d="M59 6447H66.0381V6424.09H59V6447Z" fill="white"/>
<path d="M59 6498H65.867V6475.65H59V6498Z" fill="white"/>
<path d="M59 6549H65.867V6526.65H59V6549Z" fill="white"/>
<path d="M59 6601H66.0381V6578.09H59V6601Z" fill="white"/>
<path d="M59 6653H66.0381V6630.09H59V6653Z" fill="white"/>
<path d="M59 6705H66.0381V6682.09H59V6705Z" fill="white"/>
<path d="M59 6757H66.0381V6734.09H59V6757Z" fill="white"/>
<path d="M59 6809H66.0381V6786.09H59V6809Z" fill="white"/>
<path d="M59 6861H66.0381V6838.09H59V6861Z" fill="white"/>
<path d="M0 6877V7502.3H126.065V6877H0Z" fill="#FDE829"/>
<path d="M9 6877V7502.3H116.312V6877H9Z" fill="#42424A"/>
<path d="M59 6915.91H66.0381V6893H59V6915.91Z" fill="white"/>
<path d="M59 6968H66.0381V6945.09H59V6968Z" fill="white"/>
<path d="M59 7020H66.0381V6997.09H59V7020Z" fill="white"/>
<path d="M59 7072H66.0381V7049.09H59V7072Z" fill="white"/>
<path d="M59 7123H65.867V7100.65H59V7123Z" fill="white"/>
<path d="M59 7174H65.867V7151.65H59V7174Z" fill="white"/>
<path d="M59 7226H66.0381V7203.09H59V7226Z" fill="white"/>
<path d="M59 7278H66.0381V7255.09H59V7278Z" fill="white"/>
<path d="M59 7330H66.0381V7307.09H59V7330Z" fill="white"/>
<path d="M59 7382H66.0381V7359.09H59V7382Z" fill="white"/>
<path d="M59 7434H66.0381V7411.09H59V7434Z" fill="white"/>
<path d="M59 7486H66.0381V7463.09H59V7486Z" fill="white"/>
<path d="M0 7502V8127.3H126.065V7502H0Z" fill="#FDE829"/>
<path d="M9 7502V8127.3H116.312V7502H9Z" fill="#42424A"/>
<path d="M59 7540.91H66.0381V7518H59V7540.91Z" fill="white"/>
<path d="M59 7593H66.0381V7570.09H59V7593Z" fill="white"/>
<path d="M59 7645H66.0381V7622.09H59V7645Z" fill="white"/>
<path d="M59 7697H66.0381V7674.09H59V7697Z" fill="white"/>
<path d="M59 7748H65.867V7725.65H59V7748Z" fill="white"/>
<path d="M59 7799H65.867V7776.65H59V7799Z" fill="white"/>
<path d="M59 7851H66.0381V7828.09H59V7851Z" fill="white"/>
<path d="M59 7903H66.0381V7880.09H59V7903Z" fill="white"/>
<path d="M59 7955H66.0381V7932.09H59V7955Z" fill="white"/>
<path d="M59 8007H66.0381V7984.09H59V8007Z" fill="white"/>
<path d="M59 8059H66.0381V8036.09H59V8059Z" fill="white"/>
<path d="M59 8111H66.0381V8088.09H59V8111Z" fill="white"/>
<path d="M0 8127V8752.3H126.065V8127H0Z" fill="#FDE829"/>
<path d="M9 8127V8752.3H116.312V8127H9Z" fill="#42424A"/>
<path d="M59 8165.91H66.0381V8143H59V8165.91Z" fill="white"/>
<path d="M59 8218H66.0381V8195.09H59V8218Z" fill="white"/>
<path d="M59 8270H66.0381V8247.09H59V8270Z" fill="white"/>
<path d="M59 8322H66.0381V8299.09H59V8322Z" fill="white"/>
<path d="M59 8373H65.867V8350.65H59V8373Z" fill="white"/>
<path d="M59 8424H65.867V8401.65H59V8424Z" fill="white"/>
<path d="M59 8476H66.0381V8453.09H59V8476Z" fill="white"/>
<path d="M59 8528H66.0381V8505.09H59V8528Z" fill="white"/>
<path d="M59 8580H66.0381V8557.09H59V8580Z" fill="white"/>
<path d="M59 8632H66.0381V8609.09H59V8632Z" fill="white"/>
<path d="M59 8684H66.0381V8661.09H59V8684Z" fill="white"/>
<path d="M59 8736H66.0381V8713.09H59V8736Z" fill="white"/>
<path d="M0 8752V9377.3H126.065V8752H0Z" fill="#FDE829"/>
<path d="M9 8752V9377.3H116.312V8752H9Z" fill="#42424A"/>
<path d="M59 8790.91H66.0381V8768H59V8790.91Z" fill="white"/>
<path d="M59 8843H66.0381V8820.09H59V8843Z" fill="white"/>
<path d="M59 8895H66.0381V8872.09H59V8895Z" fill="white"/>
<path d="M59 8947H66.0381V8924.09H59V8947Z" fill="white"/>
<path d="M59 8998H65.867V8975.65H59V8998Z" fill="white"/>
<path d="M59 9049H65.867V9026.65H59V9049Z" fill="white"/>
<path d="M59 9101H66.0381V9078.09H59V9101Z" fill="white"/>
<path d="M59 9153H66.0381V9130.09H59V9153Z" fill="white"/>
<path d="M59 9205H66.0381V9182.09H59V9205Z" fill="white"/>
<path d="M59 9257H66.0381V9234.09H59V9257Z" fill="white"/>
<path d="M59 9309H66.0381V9286.09H59V9309Z" fill="white"/>
<path d="M59 9361H66.0381V9338.09H59V9361Z" fill="white"/>
<path d="M0 9377V10002.3H126.065V9377H0Z" fill="#FDE829"/>
<path d="M9 9377V10002.3H116.312V9377H9Z" fill="#42424A"/>
<path d="M59 9415.91H66.0381V9393H59V9415.91Z" fill="white"/>
<path d="M59 9468H66.0381V9445.09H59V9468Z" fill="white"/>
<path d="M59 9520H66.0381V9497.09H59V9520Z" fill="white"/>
<path d="M59 9572H66.0381V9549.09H59V9572Z" fill="white"/>
<path d="M59 9623H65.867V9600.65H59V9623Z" fill="white"/>
<path d="M59 9674H65.867V9651.65H59V9674Z" fill="white"/>
<path d="M59 9726H66.0381V9703.09H59V9726Z" fill="white"/>
<path d="M59 9778H66.0381V9755.09H59V9778Z" fill="white"/>
<path d="M59 9830H66.0381V9807.09H59V9830Z" fill="white"/>
<path d="M59 9882H66.0381V9859.09H59V9882Z" fill="white"/>
<path d="M59 9934H66.0381V9911.09H59V9934Z" fill="white"/>
<path d="M59 9986H66.0381V9963.09H59V9986Z" fill="white"/>
<path d="M0 10002V10627.3H126.065V10002H0Z" fill="#FDE829"/>
<path d="M9 10002V10627.3H116.312V10002H9Z" fill="#42424A"/>
<path d="M59 10040.9H66.0381V10018H59V10040.9Z" fill="white"/>
<path d="M59 10093H66.0381V10070.1H59V10093Z" fill="white"/>
<path d="M59 10145H66.0381V10122.1H59V10145Z" fill="white"/>
<path d="M59 10197H66.0381V10174.1H59V10197Z" fill="white"/>
<path d="M59 10248H65.867V10225.6H59V10248Z" fill="white"/>
<path d="M59 10299H65.867V10276.6H59V10299Z" fill="white"/>
<path d="M59 10351H66.0381V10328.1H59V10351Z" fill="white"/>
<path d="M59 10403H66.0381V10380.1H59V10403Z" fill="white"/>
<path d="M59 10455H66.0381V10432.1H59V10455Z" fill="white"/>
<path d="M59 10507H66.0381V10484.1H59V10507Z" fill="white"/>
<path d="M59 10559H66.0381V10536.1H59V10559Z" fill="white"/>
<path d="M59 10611H66.0381V10588.1H59V10611Z" fill="white"/>
<path d="M0 10627V11252.3H126.065V10627H0Z" fill="#FDE829"/>
<path d="M9 10627V11252.3H116.312V10627H9Z" fill="#42424A"/>
<path d="M59 10665.9H66.0381V10643H59V10665.9Z" fill="white"/>
<path d="M59 10718H66.0381V10695.1H59V10718Z" fill="white"/>
<path d="M59 10770H66.0381V10747.1H59V10770Z" fill="white"/>
<path d="M59 10822H66.0381V10799.1H59V10822Z" fill="white"/>
<path d="M59 10873H65.867V10850.6H59V10873Z" fill="white"/>
<path d="M59 10924H65.867V10901.6H59V10924Z" fill="white"/>
<path d="M59 10976H66.0381V10953.1H59V10976Z" fill="white"/>
<path d="M59 11028H66.0381V11005.1H59V11028Z" fill="white"/>
<path d="M59 11080H66.0381V11057.1H59V11080Z" fill="white"/>
<path d="M59 11132H66.0381V11109.1H59V11132Z" fill="white"/>
<path d="M59 11184H66.0381V11161.1H59V11184Z" fill="white"/>
<path d="M59 11236H66.0381V11213.1H59V11236Z" fill="white"/>
<defs>
<filter id="filter0_b_986_2468" x="15.6504" y="372" width="13.1621" height="40.3809" filterUnits="userSpaceOnUse" color-interpolation-filters="sRGB">
<feFlood flood-opacity="0" result="BackgroundImageFix"/>
<feGaussianBlur in="BackgroundImageFix" stdDeviation="2"/>
<feComposite in2="SourceAlpha" operator="in" result="effect1_backgroundBlur_986_2468"/>
<feBlend mode="normal" in="SourceGraphic" in2="effect1_backgroundBlur_986_2468" result="shape"/>
</filter>
<filter id="filter1_b_986_2468" x="29.0732" y="372" width="13.1621" height="40.3809" filterUnits="userSpaceOnUse" color-interpolation-filters="sRGB">
<feFlood flood-opacity="0" result="BackgroundImageFix"/>
<feGaussianBlur in="BackgroundImageFix" stdDeviation="2"/>
<feComposite in2="SourceAlpha" operator="in" result="effect1_backgroundBlur_986_2468"/>
<feBlend mode="normal" in="SourceGraphic" in2="effect1_backgroundBlur_986_2468" result="shape"/>
</filter>
<filter id="filter2_b_986_2468" x="42.4961" y="372" width="13.1621" height="40.3809" filterUnits="userSpaceOnUse" color-interpolation-filters="sRGB">
<feFlood flood-opacity="0" result="BackgroundImageFix"/>
<feGaussianBlur in="BackgroundImageFix" stdDeviation="2"/>
<feComposite in2="SourceAlpha" operator="in" result="effect1_backgroundBlur_986_2468"/>
<feBlend mode="normal" in="SourceGraphic" in2="effect1_backgroundBlur_986_2468" result="shape"/>
</filter>
<filter id="filter3_b_986_2468" x="55.9189" y="372" width="13.1621" height="40.3809" filterUnits="userSpaceOnUse" color-interpolation-filters="sRGB">
<feFlood flood-opacity="0" result="BackgroundImageFix"/>
<feGaussianBlur in="BackgroundImageFix" stdDeviation="2"/>
<feComposite in2="SourceAlpha" operator="in" result="effect1_backgroundBlur_986_2468"/>
<feBlend mode="normal" in="SourceGraphic" in2="effect1_backgroundBlur_986_2468" result="shape"/>
</filter>
<filter id="filter4_b_986_2468" x="69.3408" y="372" width="13.1621" height="40.3809" filterUnits="userSpaceOnUse" color-interpolation-filters="sRGB">
<feFlood flood-opacity="0" result="BackgroundImageFix"/>
<feGaussianBlur in="BackgroundImageFix" stdDeviation="2"/>
<feComposite in2="SourceAlpha" operator="in" result="effect1_backgroundBlur_986_2468"/>
<feBlend mode="normal" in="SourceGraphic" in2="effect1_backgroundBlur_986_2468" result="shape"/>
</filter>
<filter id="filter5_b_986_2468" x="82.7646" y="372" width="13.1621" height="40.3809" filterUnits="userSpaceOnUse" color-interpolation-filters="sRGB">
<feFlood flood-opacity="0" result="BackgroundImageFix"/>
<feGaussianBlur in="BackgroundImageFix" stdDeviation="2"/>
<feComposite in2="SourceAlpha" operator="in" result="effect1_backgroundBlur_986_2468"/>
<feBlend mode="normal" in="SourceGraphic" in2="effect1_backgroundBlur_986_2468" result="shape"/>
</filter>
<filter id="filter6_b_986_2468" x="96.1865" y="372" width="13.1621" height="40.3809" filterUnits="userSpaceOnUse" color-interpolation-filters="sRGB">
<feFlood flood-opacity="0" result="BackgroundImageFix"/>
<feGaussianBlur in="BackgroundImageFix" stdDeviation="2"/>
<feComposite in2="SourceAlpha" operator="in" result="effect1_backgroundBlur_986_2468"/>
<feBlend mode="normal" in="SourceGraphic" in2="effect1_backgroundBlur_986_2468" result="shape"/>
</filter>
</defs>
</svg>
