<svg width="165" height="105" viewBox="0 0 165 105" fill="none" xmlns="http://www.w3.org/2000/svg">
<path d="M10.8 19V14.84H19.12V44H14.52V19H10.8Z" fill="#E9232D"/>
<line x1="75.3536" y1="14.3536" x2="0.353555" y2="89.3536" stroke="black"/>
<path d="M53.8 64V59.84H62.12V89H57.52V64H53.8Z" fill="#E9232D"/>
<path d="M79.21 77.9V89H77.5V77.9H79.21ZM80.8851 84.83C80.8851 84 81.0551 83.265 81.3951 82.625C81.7451 81.985 82.2151 81.49 82.8051 81.14C83.4051 80.78 84.0651 80.6 84.7851 80.6C85.4351 80.6 86.0001 80.73 86.4801 80.99C86.9701 81.24 87.3601 81.555 87.6501 81.935V80.735H89.3751V89H87.6501V87.77C87.3601 88.16 86.9651 88.485 86.4651 88.745C85.9651 89.005 85.3951 89.135 84.7551 89.135C84.0451 89.135 83.3951 88.955 82.8051 88.595C82.2151 88.225 81.7451 87.715 81.3951 87.065C81.0551 86.405 80.8851 85.66 80.8851 84.83ZM87.6501 84.86C87.6501 84.29 87.5301 83.795 87.2901 83.375C87.0601 82.955 86.7551 82.635 86.3751 82.415C85.9951 82.195 85.5851 82.085 85.1451 82.085C84.7051 82.085 84.2951 82.195 83.9151 82.415C83.5351 82.625 83.2251 82.94 82.9851 83.36C82.7551 83.77 82.6401 84.26 82.6401 84.83C82.6401 85.4 82.7551 85.9 82.9851 86.33C83.2251 86.76 83.5351 87.09 83.9151 87.32C84.3051 87.54 84.7151 87.65 85.1451 87.65C85.5851 87.65 85.9951 87.54 86.3751 87.32C86.7551 87.1 87.0601 86.78 87.2901 86.36C87.5301 85.93 87.6501 85.43 87.6501 84.86ZM94.8911 84.875L98.7011 89H96.3911L93.3311 85.445V89H91.6211V77.9H93.3311V84.35L96.3311 80.735H98.7011L94.8911 84.875ZM104.202 80.6C104.832 80.6 105.392 80.735 105.882 81.005C106.382 81.275 106.772 81.675 107.052 82.205C107.342 82.735 107.487 83.375 107.487 84.125V89H105.792V84.38C105.792 83.64 105.607 83.075 105.237 82.685C104.867 82.285 104.362 82.085 103.722 82.085C103.082 82.085 102.572 82.285 102.192 82.685C101.822 83.075 101.637 83.64 101.637 84.38V89H99.9268V77.9H101.637V81.695C101.927 81.345 102.292 81.075 102.732 80.885C103.182 80.695 103.672 80.6 104.202 80.6ZM115.274 81.95C115.564 81.57 115.959 81.25 116.459 80.99C116.959 80.73 117.524 80.6 118.154 80.6C118.874 80.6 119.529 80.78 120.119 81.14C120.719 81.49 121.189 81.985 121.529 82.625C121.869 83.265 122.039 84 122.039 84.83C122.039 85.66 121.869 86.405 121.529 87.065C121.189 87.715 120.719 88.225 120.119 88.595C119.529 88.955 118.874 89.135 118.154 89.135C117.524 89.135 116.964 89.01 116.474 88.76C115.984 88.5 115.584 88.18 115.274 87.8V92.93H113.564V80.735H115.274V81.95ZM120.299 84.83C120.299 84.26 120.179 83.77 119.939 83.36C119.709 82.94 119.399 82.625 119.009 82.415C118.629 82.195 118.219 82.085 117.779 82.085C117.349 82.085 116.939 82.195 116.549 82.415C116.169 82.635 115.859 82.955 115.619 83.375C115.389 83.795 115.274 84.29 115.274 84.86C115.274 85.43 115.389 85.93 115.619 86.36C115.859 86.78 116.169 87.1 116.549 87.32C116.939 87.54 117.349 87.65 117.779 87.65C118.219 87.65 118.629 87.54 119.009 87.32C119.399 87.09 119.709 86.76 119.939 86.33C120.179 85.9 120.299 85.4 120.299 84.83ZM131.305 84.665C131.305 84.975 131.285 85.255 131.245 85.505H124.93C124.98 86.165 125.225 86.695 125.665 87.095C126.105 87.495 126.645 87.695 127.285 87.695C128.205 87.695 128.855 87.31 129.235 86.54H131.08C130.83 87.3 130.375 87.925 129.715 88.415C129.065 88.895 128.255 89.135 127.285 89.135C126.495 89.135 125.785 88.96 125.155 88.61C124.535 88.25 124.045 87.75 123.685 87.11C123.335 86.46 123.16 85.71 123.16 84.86C123.16 84.01 123.33 83.265 123.67 82.625C124.02 81.975 124.505 81.475 125.125 81.125C125.755 80.775 126.475 80.6 127.285 80.6C128.065 80.6 128.76 80.77 129.37 81.11C129.98 81.45 130.455 81.93 130.795 82.55C131.135 83.16 131.305 83.865 131.305 84.665ZM129.52 84.125C129.51 83.495 129.285 82.99 128.845 82.61C128.405 82.23 127.86 82.04 127.21 82.04C126.62 82.04 126.115 82.23 125.695 82.61C125.275 82.98 125.025 83.485 124.945 84.125H129.52ZM136.573 89.135C135.793 89.135 135.088 88.96 134.458 88.61C133.828 88.25 133.333 87.75 132.973 87.11C132.613 86.46 132.433 85.71 132.433 84.86C132.433 84.02 132.618 83.275 132.988 82.625C133.358 81.975 133.863 81.475 134.503 81.125C135.143 80.775 135.858 80.6 136.648 80.6C137.438 80.6 138.153 80.775 138.793 81.125C139.433 81.475 139.938 81.975 140.308 82.625C140.678 83.275 140.863 84.02 140.863 84.86C140.863 85.7 140.673 86.445 140.293 87.095C139.913 87.745 139.393 88.25 138.733 88.61C138.083 88.96 137.363 89.135 136.573 89.135ZM136.573 87.65C137.013 87.65 137.423 87.545 137.803 87.335C138.193 87.125 138.508 86.81 138.748 86.39C138.988 85.97 139.108 85.46 139.108 84.86C139.108 84.26 138.993 83.755 138.763 83.345C138.533 82.925 138.228 82.61 137.848 82.4C137.468 82.19 137.058 82.085 136.618 82.085C136.178 82.085 135.768 82.19 135.388 82.4C135.018 82.61 134.723 82.925 134.503 83.345C134.283 83.755 134.173 84.26 134.173 84.86C134.173 85.75 134.398 86.44 134.848 86.93C135.308 87.41 135.883 87.65 136.573 87.65ZM144.264 81.95C144.554 81.57 144.949 81.25 145.449 80.99C145.949 80.73 146.514 80.6 147.144 80.6C147.864 80.6 148.519 80.78 149.109 81.14C149.709 81.49 150.179 81.985 150.519 82.625C150.859 83.265 151.029 84 151.029 84.83C151.029 85.66 150.859 86.405 150.519 87.065C150.179 87.715 149.709 88.225 149.109 88.595C148.519 88.955 147.864 89.135 147.144 89.135C146.514 89.135 145.954 89.01 145.464 88.76C144.974 88.5 144.574 88.18 144.264 87.8V92.93H142.554V80.735H144.264V81.95ZM149.289 84.83C149.289 84.26 149.169 83.77 148.929 83.36C148.699 82.94 148.389 82.625 147.999 82.415C147.619 82.195 147.209 82.085 146.769 82.085C146.339 82.085 145.929 82.195 145.539 82.415C145.159 82.635 144.849 82.955 144.609 83.375C144.379 83.795 144.264 84.29 144.264 84.86C144.264 85.43 144.379 85.93 144.609 86.36C144.849 86.78 145.159 87.1 145.539 87.32C145.929 87.54 146.339 87.65 146.769 87.65C147.209 87.65 147.619 87.54 147.999 87.32C148.389 87.09 148.699 86.76 148.929 86.33C149.169 85.9 149.289 85.4 149.289 84.83ZM154.43 77.9V89H152.72V77.9H154.43ZM164.25 84.665C164.25 84.975 164.23 85.255 164.19 85.505H157.875C157.925 86.165 158.17 86.695 158.61 87.095C159.05 87.495 159.59 87.695 160.23 87.695C161.15 87.695 161.8 87.31 162.18 86.54H164.025C163.775 87.3 163.32 87.925 162.66 88.415C162.01 88.895 161.2 89.135 160.23 89.135C159.44 89.135 158.73 88.96 158.1 88.61C157.48 88.25 156.99 87.75 156.63 87.11C156.28 86.46 156.105 85.71 156.105 84.86C156.105 84.01 156.275 83.265 156.615 82.625C156.965 81.975 157.45 81.475 158.07 81.125C158.7 80.775 159.42 80.6 160.23 80.6C161.01 80.6 161.705 80.77 162.315 81.11C162.925 81.45 163.4 81.93 163.74 82.55C164.08 83.16 164.25 83.865 164.25 84.665ZM162.465 84.125C162.455 83.495 162.23 82.99 161.79 82.61C161.35 82.23 160.805 82.04 160.155 82.04C159.565 82.04 159.06 82.23 158.64 82.61C158.22 82.98 157.97 83.485 157.89 84.125H162.465Z" fill="black"/>
<rect x="28" y="45" width="21" height="11" fill="white"/>
<path d="M33.89 47.3C34.0833 47.0467 34.3467 46.8333 34.68 46.66C35.0133 46.4867 35.39 46.4 35.81 46.4C36.29 46.4 36.7267 46.52 37.12 46.76C37.52 46.9933 37.8333 47.3233 38.06 47.75C38.2867 48.1767 38.4 48.6667 38.4 49.22C38.4 49.7733 38.2867 50.27 38.06 50.71C37.8333 51.1433 37.52 51.4833 37.12 51.73C36.7267 51.97 36.29 52.09 35.81 52.09C35.39 52.09 35.0167 52.0067 34.69 51.84C34.3633 51.6667 34.0967 51.4533 33.89 51.2V54.62H32.75V46.49H33.89V47.3ZM37.24 49.22C37.24 48.84 37.16 48.5133 37 48.24C36.8467 47.96 36.64 47.75 36.38 47.61C36.1267 47.4633 35.8533 47.39 35.56 47.39C35.2733 47.39 35 47.4633 34.74 47.61C34.4867 47.7567 34.28 47.97 34.12 48.25C33.9667 48.53 33.89 48.86 33.89 49.24C33.89 49.62 33.9667 49.9533 34.12 50.24C34.28 50.52 34.4867 50.7333 34.74 50.88C35 51.0267 35.2733 51.1 35.56 51.1C35.8533 51.1 36.1267 51.0267 36.38 50.88C36.64 50.7267 36.8467 50.5067 37 50.22C37.16 49.9333 37.24 49.6 37.24 49.22ZM44.5773 49.11C44.5773 49.3167 44.564 49.5033 44.5373 49.67H40.3273C40.3607 50.11 40.524 50.4633 40.8173 50.73C41.1107 50.9967 41.4707 51.13 41.8973 51.13C42.5107 51.13 42.944 50.8733 43.1973 50.36H44.4273C44.2607 50.8667 43.9573 51.2833 43.5173 51.61C43.084 51.93 42.544 52.09 41.8973 52.09C41.3707 52.09 40.8973 51.9733 40.4773 51.74C40.064 51.5 39.7373 51.1667 39.4973 50.74C39.264 50.3067 39.1473 49.8067 39.1473 49.24C39.1473 48.6733 39.2607 48.1767 39.4873 47.75C39.7207 47.3167 40.044 46.9833 40.4573 46.75C40.8773 46.5167 41.3573 46.4 41.8973 46.4C42.4173 46.4 42.8807 46.5133 43.2873 46.74C43.694 46.9667 44.0107 47.2867 44.2373 47.7C44.464 48.1067 44.5773 48.5767 44.5773 49.11ZM43.3873 48.75C43.3807 48.33 43.2307 47.9933 42.9373 47.74C42.644 47.4867 42.2807 47.36 41.8473 47.36C41.454 47.36 41.1173 47.4867 40.8373 47.74C40.5573 47.9867 40.3907 48.3233 40.3373 48.75H43.3873ZM46.8392 47.29C47.0059 47.01 47.2259 46.7933 47.4992 46.64C47.7792 46.48 48.1092 46.4 48.4892 46.4V47.58H48.1992C47.7526 47.58 47.4126 47.6933 47.1792 47.92C46.9526 48.1467 46.8392 48.54 46.8392 49.1V52H45.6992V46.49H46.8392V47.29Z" fill="black"/>
</svg>
