<svg xmlns="http://www.w3.org/2000/svg" xmlns:xlink="http://www.w3.org/1999/xlink" version="1.1" width="1000" height="1000" viewBox="0 0 1000 1000" xml:space="preserve">
<desc>Created with Fabric.js 3.5.0</desc>
<defs>
</defs>
<rect x="0" y="0" width="100%" height="100%" fill="rgba(255,255,255,0)"/>
<g transform="matrix(1.1517 0 0 -1.1517 500.0034 500.0075)" id="656317">
<g style="" vector-effect="non-scaling-stroke">
		<g transform="matrix(1 0 0 1 -149.2506 267.7079)" id="rect959">
<rect style="stroke: none; stroke-width: 1.3333; stroke-dasharray: none; stroke-linecap: butt; stroke-dashoffset: 0; stroke-linejoin: miter; stroke-miterlimit: 4; is-custom-font: none; font-file-url: none; fill: rgb(96,88,90); fill-rule: evenodd; opacity: 1;" x="-13.8875" y="-39.348" rx="8.5849" ry="8.5849" width="27.775" height="78.696"/>
</g>
		<g transform="matrix(1 0 0 1 145.7524 257.7079)" id="rect958">
<rect style="stroke: none; stroke-width: 1.3333; stroke-dasharray: none; stroke-linecap: butt; stroke-dashoffset: 0; stroke-linejoin: miter; stroke-miterlimit: 4; is-custom-font: none; font-file-url: none; fill: rgb(96,88,90); fill-rule: evenodd; opacity: 1;" x="-13.8875" y="-39.348" rx="8.5849" ry="8.5849" width="27.775" height="78.696"/>
</g>
		<g transform="matrix(-1 0 0 -1 42.2488 -334.126)" id="path787">
<path style="stroke: none; stroke-width: 1; stroke-dasharray: none; stroke-linecap: butt; stroke-dashoffset: 0; stroke-linejoin: miter; stroke-miterlimit: 4; is-custom-font: none; font-file-url: none; fill: rgb(74,0,173); fill-rule: nonzero; opacity: 1;" transform=" translate(-60.9763, -705.566)" d="m 76.616 699.19 c -5.4727 -0.321 -11.137 -0.388 -16.567 0.34 c -3.5734 0.712 -11.473 3.767 -7.655 8.677 c 5.2454 5.042 14.531 4.269 21.161 3.703 l 0.5137 5.994 c -9.1289 0.75 -20.165 0.992 -26.841 -6.329 c -5.9809 -9.521 3.3763 -16.399 12.025 -18.017 c 5.7819 -0.733 11.564 -0.349 17.362 -0.688 v 6.32 z" stroke-linecap="round"/>
</g>
		<g transform="matrix(-1 0 0 1 42.2488 -352.994)" id="path788">
<path style="stroke: none; stroke-width: 1; stroke-dasharray: none; stroke-linecap: butt; stroke-dashoffset: 0; stroke-linejoin: miter; stroke-miterlimit: 4; is-custom-font: none; font-file-url: none; fill: rgb(74,0,173); fill-rule: nonzero; opacity: 1;" transform=" translate(-60.9763, -705.566)" d="m 76.616 699.19 c -5.4727 -0.321 -11.137 -0.388 -16.567 0.34 c -3.5734 0.712 -11.473 3.767 -7.655 8.677 c 5.2454 5.042 14.531 4.269 21.161 3.703 l 0.5137 5.994 c -9.1289 0.75 -20.165 0.992 -26.841 -6.329 c -5.9809 -9.521 3.3763 -16.399 12.025 -18.017 c 5.7819 -0.733 11.564 -0.349 17.362 -0.688 v 6.32 z" stroke-linecap="round"/>
</g>
		<g transform="matrix(-1.3776 0 0 -1.3776 11.9791 -353.5207)" id="path789">
<path style="stroke: none; stroke-width: 1; stroke-dasharray: none; stroke-linecap: butt; stroke-dashoffset: 0; stroke-linejoin: miter; stroke-miterlimit: 4; is-custom-font: none; font-file-url: none; fill: rgb(74,0,173); fill-rule: nonzero; opacity: 1;" transform=" translate(-92.5914, -721.0298)" d="m 97.472 715.31 c -1.4986 -0.143 -3.0393 -0.081 -4.5417 -0.089 c -1.2715 -0.004 -5.5397 -0.655 -6.3316 0.724 c -0.2793 0.983 0.196 2.108 1.022 2.657 c 2.002 1.029 4.7046 0.505 6.8526 0.402 c 2.6281 -0.126 6.1922 -0.416 6.9952 2.782 c 0.249 2.611 -1.378 5.115 -3.4074 6.63 c -2.6849 1.651 -5.7413 1.346 -8.7364 0.969 c -1.7834 -0.237 -3.5619 -0.51 -5.3498 -0.711 l 0.3288 -2.76 c 1.7937 0.214 3.576 0.511 5.3666 0.748 c 2.19 0.268 4.7033 0.675 6.7086 -0.491 c 1.154 -0.815 2.2671 -2.318 2.2757 -3.791 c 0.0105 -1.097 -3.415 -0.664 -4.039 -0.633 c -2.8978 0.155 -6.0482 0.623 -8.678 -0.876 c -2.1183 -1.588 -3.0545 -4.623 -1.4109 -6.885 c 2.1458 -2.038 5.6768 -1.512 8.4036 -1.521 c 1.5024 -0.007 3.0431 0.055 4.5417 -0.088 v 2.933 z" stroke-linecap="round"/>
</g>
		<g transform="matrix(-1.166 0 0 -1.0624 -9.765 -343.5042)" id="path791">
<path style="stroke: none; stroke-width: 1; stroke-dasharray: none; stroke-linecap: butt; stroke-dashoffset: 0; stroke-linejoin: miter; stroke-miterlimit: 4; is-custom-font: none; font-file-url: none; fill: rgb(74,0,173); fill-rule: nonzero; opacity: 1;" transform=" translate(-119.3825, -715.533)" d="m 109.26 713.84 c 2.054 0.228 4.181 0.138 6.242 0.15 c 3.888 0.015 7.776 -0.017 11.665 -0.034 c 0.779 -0.005 1.559 -0.011 2.338 -0.036 v 3.227 c -0.779 -0.026 -1.559 -0.032 -2.338 -0.037 c -3.889 -0.017 -7.777 -0.049 -11.665 -0.034 c -2.061 0.012 -4.188 -0.078 -6.242 0.15 v -3.386 z" stroke-linecap="round"/>
</g>
		<g transform="matrix(-1.166 0 0 -1.0624 -9.3202 -354.4004)" id="path792">
<path style="stroke: none; stroke-width: 1; stroke-dasharray: none; stroke-linecap: butt; stroke-dashoffset: 0; stroke-linejoin: miter; stroke-miterlimit: 4; is-custom-font: none; font-file-url: none; fill: rgb(74,0,173); fill-rule: nonzero; opacity: 1;" transform=" translate(-117.6565, -725.453)" d="m 119.37 715.87 c -0.159 1.242 -0.079 2.551 -0.087 3.798 c -0.011 2.488 -0.012 4.976 0.006 7.465 c 0.012 1.648 0.028 3.296 0.032 4.944 c 0.001 0.986 -0.002 1.973 -0.004 2.959 h -3.321 c -0.002 -0.986 -0.005 -1.973 -0.003 -2.959 c 0.003 -1.648 0.019 -3.296 0.031 -4.944 c 0.018 -2.489 0.018 -4.977 0.007 -7.465 c -0.009 -1.247 0.072 -2.556 -0.088 -3.798 h 3.427 z" stroke-linecap="round"/>
</g>
		<g transform="matrix(-1 0 0 -1 -24.5215 -353.6115)" id="path794">
<path style="stroke: none; stroke-width: 1; stroke-dasharray: none; stroke-linecap: butt; stroke-dashoffset: 0; stroke-linejoin: miter; stroke-miterlimit: 4; is-custom-font: none; font-file-url: none; fill: rgb(74,0,173); fill-rule: nonzero; opacity: 1;" transform=" translate(-127.7465, -725.0515)" d="m 129.46 713.86 c -0.219 1.706 -0.114 3.502 -0.134 5.217 c -0.046 4.31 -0.051 8.621 -0.008 12.932 c 0.017 1.411 0.038 2.823 0.066 4.234 h -3.275 c 0.027 -1.411 0.049 -2.823 0.066 -4.234 c 0.043 -4.311 0.037 -8.622 -0.008 -12.932 c -0.021 -1.715 0.085 -3.511 -0.134 -5.217 h 3.427 z" stroke-linecap="round"/>
</g>
		<g transform="matrix(-1 0 0 -1 -29.3696 -346.7432)" id="path795">
<path style="stroke: none; stroke-width: 1; stroke-dasharray: none; stroke-linecap: butt; stroke-dashoffset: 0; stroke-linejoin: miter; stroke-miterlimit: 4; is-custom-font: none; font-file-url: none; fill: rgb(74,0,173); fill-rule: nonzero; opacity: 1;" transform=" translate(-132.5946, -718.1832)" d="m 127.41 712.83 c 1.41 0.156 2.863 0.074 4.28 0.113 c 3.027 0.138 5.689 1.021 6.086 4.411 c 0.091 3.395 -1.772 5.431 -5.069 6.06 c -1.547 0.195 -3.059 0.136 -4.605 -0.029 l 0.353 -3.167 c 1.221 0.137 2.422 0.2 3.645 0.051 c 1.605 -0.296 2.418 -0.88 2.405 -2.576 c -0.124 -1.535 -1.597 -1.488 -2.895 -1.55 c -1.383 -0.028 -2.821 -0.081 -4.2 0.073 v -3.386 z" stroke-linecap="round"/>
</g>
		<g transform="matrix(-1 0 0 -1 -31.8971 -357.523)" id="path796">
<path style="stroke: none; stroke-width: 1; stroke-dasharray: none; stroke-linecap: butt; stroke-dashoffset: 0; stroke-linejoin: miter; stroke-miterlimit: 4; is-custom-font: none; font-file-url: none; fill: rgb(74,0,173); fill-rule: nonzero; opacity: 1;" transform=" translate(-135.1221, -728.963)" d="m 128.76 721.9 c 1.223 0.136 2.492 0.072 3.72 0.082 c 2.638 0.021 5.597 -0.184 7.788 1.535 c 1.853 1.96 1.215 4.372 0.521 6.696 c -0.472 1.573 -0.874 3.118 -0.925 4.767 c -0.003 0.322 0 0.641 0.008 0.962 l -3.305 0.084 c -0.01 -0.383 -0.013 -0.765 -0.009 -1.148 c 0.062 -1.931 0.526 -3.743 1.082 -5.583 c 0.252 -0.844 0.953 -2.406 0.486 -3.29 c -1.116 -1.268 -4.173 -0.813 -5.646 -0.801 c -1.228 0.01 -2.497 -0.054 -3.72 0.082 v -3.386 z" stroke-linecap="round"/>
</g>
		<g transform="matrix(-1 0 0 -1 -24.0115 -342.9126)" id="rect797">
<rect style="stroke: none; stroke-width: 1.3333; stroke-dasharray: none; stroke-linecap: butt; stroke-dashoffset: 0; stroke-linejoin: miter; stroke-miterlimit: 4; is-custom-font: none; font-file-url: none; fill: rgb(74,0,173); fill-rule: evenodd; opacity: 1;" x="-1.17655" y="-1.5127" rx="0" ry="0" width="2.3531" height="3.0254"/>
</g>
		<g transform="matrix(-1 0 0 -1 -50.5675 -353.3299)" id="path798">
<path style="stroke: none; stroke-width: 1.3333; stroke-dasharray: none; stroke-linecap: butt; stroke-dashoffset: 0; stroke-linejoin: miter; stroke-miterlimit: 4; is-custom-font: none; font-file-url: none; fill: rgb(74,0,173); fill-rule: evenodd; opacity: 1;" transform=" translate(-153.7925, -724.77)" d="m 165.39 724.77 c 0 6.958 -5.196 12.606 -11.598 12.606 s -11.597 -5.648 -11.597 -12.606 c 0 -6.959 5.195 -12.606 11.597 -12.606 s 11.598 5.647 11.598 12.606 z m -3.698 -0.322 c 0 4.739 -3.54 8.586 -7.9 8.586 c -4.361 0 -7.9 -3.847 -7.9 -8.586 c 0 -4.741 3.539 -8.587 7.9 -8.587 c 4.36 0 7.9 3.846 7.9 8.587 z" stroke-linecap="round"/>
</g>
		<g transform="matrix(1 0 0 1 153.2524 -257.294)" id="rect317">
<rect style="stroke: none; stroke-width: 1.3333; stroke-dasharray: none; stroke-linecap: butt; stroke-dashoffset: 0; stroke-linejoin: miter; stroke-miterlimit: 4; is-custom-font: none; font-file-url: none; fill: rgb(96,88,90); fill-rule: evenodd; opacity: 1;" x="-13.8875" y="-39.348" rx="8.5849" ry="8.5849" width="27.775" height="78.696"/>
</g>
		<g transform="matrix(1 0 0 1 -156.9043 -254.2121)" id="rect316">
<rect style="stroke: none; stroke-width: 1.3333; stroke-dasharray: none; stroke-linecap: butt; stroke-dashoffset: 0; stroke-linejoin: miter; stroke-miterlimit: 4; is-custom-font: none; font-file-url: none; fill: rgb(96,88,90); fill-rule: evenodd; opacity: 1;" x="-13.8875" y="-39.348" rx="8.5849" ry="8.5849" width="27.775" height="78.696"/>
</g>
		<g transform="matrix(1 0 0 1 -1.721 -2.7851)" id="path184">
<radialGradient id="SVGID_11" gradientUnits="userSpaceOnUse" gradientTransform="matrix(0.658 0 0 1.5197 -252.14 -111.82)" cx="657.76" cy="319.37" r="1269.3" fx="657.76" fy="319.37">
<stop offset="0%" style="stop-color:rgb(248,206,0);stop-opacity: 1"/>
<stop offset="100%" style="stop-color:rgb(183,151,0);stop-opacity: 1"/>
</radialGradient>
<path style="stroke: rgb(0,0,0); stroke-width: 1.3333; stroke-dasharray: none; stroke-linecap: butt; stroke-dashoffset: 0; stroke-linejoin: miter; stroke-miterlimit: 4; is-custom-font: none; font-file-url: none; fill: url(#SVGID_11); fill-rule: evenodd; opacity: 1;" transform=" translate(-177.704, -391.8949)" d="m 178.73 782.98 c -113.07 2.362 -130.4 -17.92 -147.11 -21.261 c -16.705 -38.776 -19.877 -365.73 -9.855 -392.46 c 7.493 -60.54 -4.936 -70.565 -8.687 -143.53 c -7.14 -85.213 9.815 -37.829 -4.439 -124.48 c 21.658 -90.216 -19.136 -92.053 168.52 -100.63 c 172.21 2.401 147.96 10.415 169.61 100.63 c -14.254 86.652 2.701 39.268 -4.439 124.48 c -3.751 72.961 -16.18 82.986 -8.687 143.53 c 10.022 26.727 6.85 353.68 -9.855 392.46 c -26.153 15.153 -95.459 21.261 -145.07 21.261 z" stroke-linecap="round"/>
</g>
		<g transform="matrix(1 0 0 1 -131.7349 30.179)" id="path272">
<radialGradient id="SVGID_12" gradientUnits="userSpaceOnUse" gradientTransform="matrix(0.3909 0 0 3.6334 -343 -162.47)" cx="897.24" cy="153.65" r="15.849" fx="897.24" fy="153.65">
<stop offset="0%" style="stop-color:rgb(248,206,0);stop-opacity: 1"/>
<stop offset="100%" style="stop-color:rgb(183,151,0);stop-opacity: 1"/>
</radialGradient>
<path style="stroke: none; stroke-width: 1; stroke-dasharray: none; stroke-linecap: butt; stroke-dashoffset: 0; stroke-linejoin: miter; stroke-miterlimit: 4; is-custom-font: none; font-file-url: none; fill: url(#SVGID_12); fill-rule: evenodd; opacity: 1;" transform=" translate(-47.6901, -424.859)" d="m 41.537 281.88 s 21.534 82.442 21.534 82.442 s 0 154.58 -3.0758 157.15 c -3.0771 2.5759 -27.686 46.372 -27.686 46.372 s 6.1517 -280.81 9.2288 -285.97 z" stroke-linecap="round"/>
</g>
		<g transform="matrix(1 0 0 1 133.2619 25.179)" id="path274">
<radialGradient id="SVGID_13" gradientUnits="userSpaceOnUse" gradientTransform="matrix(-0.3909 0 0 3.6334 703.38 -167.47)" cx="897.24" cy="153.65" r="15.849" fx="897.24" fy="153.65">
<stop offset="0%" style="stop-color:rgb(248,206,0);stop-opacity: 1"/>
<stop offset="100%" style="stop-color:rgb(183,151,0);stop-opacity: 1"/>
</radialGradient>
<path style="stroke: none; stroke-width: 1; stroke-dasharray: none; stroke-linecap: butt; stroke-dashoffset: 0; stroke-linejoin: miter; stroke-miterlimit: 4; is-custom-font: none; font-file-url: none; fill: url(#SVGID_13); fill-rule: evenodd; opacity: 1;" transform=" translate(-312.6869, -419.859)" d="m 318.84 276.88 s -21.534 82.442 -21.534 82.442 s 0 154.58 3.0758 157.15 c 3.0771 2.5759 27.686 46.372 27.686 46.372 s -6.1517 -280.81 -9.2288 -285.97 z" stroke-linecap="round"/>
</g>
		<g transform="matrix(1 0 0 1 -3.5976 -257.5017)" id="path230">
<path style="stroke: rgb(0,0,0); stroke-opacity: 0.46; stroke-width: 1.3333; stroke-dasharray: none; stroke-linecap: butt; stroke-dashoffset: 0; stroke-linejoin: miter; stroke-miterlimit: 4; is-custom-font: none; font-file-url: none; fill: rgb(247,206,0); fill-rule: evenodd; opacity: 1;" transform=" translate(-175.8274, -137.1783)" d="m 37.198 44.521 c -11.667 18.667 -10.816 196.22 7.851 210.22 c 18.03 -14.851 122.48 -28.646 142.34 -27.364 c 20.288 -1.492 99.694 8.055 124.09 22.697 c 6.577 2.13 19.727 -205.55 1.059 -219.55 c -58.34 -16.344 -252.01 -16.344 -275.34 13.99 z" stroke-linecap="round"/>
</g>
		<g transform="matrix(1 0 0 1 -0.6295 -97.2097)" id="path275">
<radialGradient id="SVGID_14" gradientUnits="userSpaceOnUse" gradientTransform="matrix(1.5041 0 0 0.742 -264.04 -146.71)" cx="294.43" cy="598.63" r="91.234" fx="294.43" fy="598.63">
<stop offset="0%" style="stop-color:rgb(248,206,0);stop-opacity: 1"/>
<stop offset="100%" style="stop-color:rgb(183,151,0);stop-opacity: 1"/>
</radialGradient>
<path style="stroke: none; stroke-width: 1; stroke-dasharray: none; stroke-linecap: butt; stroke-dashoffset: 0; stroke-linejoin: miter; stroke-miterlimit: 4; is-custom-font: none; font-file-url: none; fill: url(#SVGID_14); fill-rule: evenodd; opacity: 1;" transform=" translate(-178.7956, -297.4703)" d="m 41.764 257.39 s 65.53 -26.897 138.64 -27.585 c 65.833 -0.64088 95.565 9.623 135.61 25.019 c -4.8534 48.756 -9.7078 94.943 -21.843 110.34 c -111.64 -28.23 -118.92 -28.23 -230.56 0 c -2.43 -15.39 -24.273 -105.21 -21.846 -107.77 z" stroke-linecap="round"/>
</g>
		<g transform="matrix(1 0 0 1 -0.5274 -97.5811)" id="path185">
<path style="stroke: rgb(0,0,0); stroke-width: 1.3333; stroke-dasharray: none; stroke-linecap: butt; stroke-dashoffset: 0; stroke-linejoin: miter; stroke-miterlimit: 4; is-custom-font: none; font-file-url: none; fill: rgb(0,0,0); fill-opacity: 0.7; fill-rule: evenodd; opacity: 1;" transform=" translate(-178.8976, -297.0989)" d="m 45.51 260.2 s 63.783 -24.762 134.95 -25.395 c 64.078 -0.59 93.017 8.859 132 23.033 c -4.724 44.885 -9.449 87.405 -21.261 101.58 c -108.67 -25.986 -115.75 -25.985 -224.42 0.001 c -2.362 -14.174 -23.623 -96.856 -21.261 -99.218 z" stroke-linecap="round"/>
</g>
		<g transform="matrix(1 0 0 1 -1.066 234.463)" id="path270">
<radialGradient id="SVGID_15" gradientUnits="userSpaceOnUse" gradientTransform="matrix(1.1693 0 0 0.9378 -273.1 -147.55)" cx="378.79" cy="819.9" r="115.39" fx="378.79" fy="819.9">
<stop offset="0%" style="stop-color:rgb(248,206,0);stop-opacity: 1"/>
<stop offset="100%" style="stop-color:rgb(183,151,0);stop-opacity: 1"/>
</radialGradient>
<path style="stroke: none; stroke-width: 1; stroke-dasharray: none; stroke-linecap: butt; stroke-dashoffset: 0; stroke-linejoin: miter; stroke-miterlimit: 4; is-custom-font: none; font-file-url: none; fill: url(#SVGID_15); fill-rule: evenodd; opacity: 1;" transform=" translate(-178.359, -629.143)" d="m 75.697 531.43 c -12.369 59.368 -22.263 173.16 -22.263 173.16 c 19.79 17.316 121.21 24.737 123.69 24.737 c 7.4212 0 108.84 -7.4212 126.16 -32.158 c 0 -14.842 -9.8956 -121.21 -19.79 -168.21 c -86.579 12.368 -202.84 7.4212 -207.79 2.4734 z" stroke-linecap="round"/>
</g>
		<g transform="matrix(1 0 0 1 -0.4411 235.218)" id="path188">
<path style="stroke: rgb(0,0,0); stroke-width: 1.3333; stroke-dasharray: none; stroke-linecap: butt; stroke-dashoffset: 0; stroke-linejoin: miter; stroke-miterlimit: 4; is-custom-font: none; font-file-url: none; fill: rgb(0,0,0); fill-opacity: 0.79; fill-rule: evenodd; opacity: 1;" transform=" translate(-178.984, -629.898)" d="m 80.945 536.59 c -11.812 56.695 -21.261 165.36 -21.261 165.36 c 18.899 16.536 115.75 23.623 118.12 23.623 c 7.087 0 103.94 -7.087 120.48 -30.71 c 0 -14.174 -9.45 -115.75 -18.899 -160.64 c -82.681 11.811 -193.71 7.087 -198.44 2.362 z" stroke-linecap="round"/>
</g>
		<g transform="matrix(1 0 0 1 160.6355 -102.4606)" id="path189">
<path style="stroke: rgb(0,0,0); stroke-opacity: 0.55; stroke-width: 1.25; stroke-dasharray: none; stroke-linecap: butt; stroke-dashoffset: 0; stroke-linejoin: miter; stroke-miterlimit: 4; is-custom-font: none; font-file-url: none; fill: rgb(247,206,0); fill-rule: evenodd; opacity: 1;" transform=" translate(-340.0605, -292.2194)" d="m 321.9 279.09 l 28.348 2.362 s 14.174 14.174 4.725 21.261 c -9.45 7.087 -33.073 -2.362 -33.073 -2.362 v -21.261 z" stroke-linecap="round"/>
</g>
		<g transform="matrix(1 0 0 1 -160.6395 -97.7307)" id="path190">
<path style="stroke: rgb(0,0,0); stroke-opacity: 0.55; stroke-width: 1.3333; stroke-dasharray: none; stroke-linecap: butt; stroke-dashoffset: 0; stroke-linejoin: miter; stroke-miterlimit: 4; is-custom-font: none; font-file-url: none; fill: rgb(247,206,0); fill-rule: evenodd; opacity: 1;" transform=" translate(-18.7855, -296.9494)" d="m 36.946 283.82 l -28.348 2.362 s -14.174 14.174 -4.725 21.261 c 9.45 7.087 33.073 -2.362 33.073 -2.362 v -21.261 z" stroke-linecap="round"/>
</g>
		<g transform="matrix(1 0 0 1 -109.3523 -369.1226)" id="path304">
<path style="stroke: rgb(0,0,0); stroke-opacity: 0.25; stroke-width: 1.4427; stroke-dasharray: none; stroke-linecap: butt; stroke-dashoffset: 0; stroke-linejoin: miter; stroke-miterlimit: 4; is-custom-font: none; font-file-url: none; fill: rgb(46,135,207); fill-opacity: 0.57; fill-rule: evenodd; opacity: 1;" transform=" translate(-70.0727, -25.5574)" d="m 52.582 17.025 c -9.023 1.573 -19.32 18.998 -14.584 21.902 c 11.281 -5.689 33.327 -13.506 54.984 -15.684 c 4.286 -2.3 10.138 -9.356 10.358 -10.929 c -14.886 -0.847 -40.915 2.775 -50.758 4.711 z" stroke-linecap="round"/>
</g>
		<g transform="matrix(1 0 0 1 101.7834 -376.2155)" id="path306">
<path style="stroke: rgb(0,0,0); stroke-opacity: 0.25; stroke-width: 1.4427; stroke-dasharray: none; stroke-linecap: butt; stroke-dashoffset: 0; stroke-linejoin: miter; stroke-miterlimit: 4; is-custom-font: none; font-file-url: none; fill: rgb(46,135,207); fill-opacity: 0.57; fill-rule: evenodd; opacity: 1;" transform=" translate(-281.2083, -18.4645)" d="m 298.7 12.115 c 9.0231 1.5731 19.32 14.633 14.584 17.537 c -11.28 -5.6886 -33.327 -7.5051 -54.984 -9.6837 c -4.2855 -2.2999 -10.134 -10.992 -10.36 -12.565 c 14.888 -0.84719 40.917 2.7754 50.76 4.7115 z" stroke-linecap="round"/>
</g>
		<g transform="matrix(1 0 0 1 -3.85 -386.8467)" id="path307">
<path style="stroke: rgb(0,0,0); stroke-opacity: 0.37; stroke-width: 1.3333; stroke-dasharray: none; stroke-linecap: butt; stroke-dashoffset: 0; stroke-linejoin: miter; stroke-miterlimit: 4; is-custom-font: none; font-file-url: none; fill: none; fill-rule: nonzero; opacity: 1;" transform=" translate(-175.575, -7.8333)" d="m 112.29 10.38 c 37.098 -6.547 99.837 -6.002 126.57 -2.729" stroke-linecap="round"/>
</g>
		<g transform="matrix(1 0 0 1 -3.85 -384.1187)" id="path308">
<path style="stroke: rgb(0,0,0); stroke-opacity: 0.37; stroke-width: 1.3333; stroke-dasharray: none; stroke-linecap: butt; stroke-dashoffset: 0; stroke-linejoin: miter; stroke-miterlimit: 4; is-custom-font: none; font-file-url: none; fill: none; fill-rule: nonzero; opacity: 1;" transform=" translate(-175.575, -10.5613)" d="m 112.29 13.108 c 37.098 -6.547 99.837 -6.002 126.57 -2.729" stroke-linecap="round"/>
</g>
		<g transform="matrix(1 0 0 1 -3.85 -380.8457)" id="path309">
<path style="stroke: rgb(0,0,0); stroke-opacity: 0.37; stroke-width: 1.3333; stroke-dasharray: none; stroke-linecap: butt; stroke-dashoffset: 0; stroke-linejoin: miter; stroke-miterlimit: 4; is-custom-font: none; font-file-url: none; fill: none; fill-rule: nonzero; opacity: 1;" transform=" translate(-175.575, -13.8343)" d="m 112.29 16.381 c 37.098 -6.547 99.837 -6.002 126.57 -2.729" stroke-linecap="round"/>
</g>
		<g transform="matrix(1 0 0 1 -4.94 -376.7613)" id="path310">
<path style="stroke: rgb(0,0,0); stroke-opacity: 0.37; stroke-width: 1.3333; stroke-dasharray: none; stroke-linecap: butt; stroke-dashoffset: 0; stroke-linejoin: miter; stroke-miterlimit: 4; is-custom-font: none; font-file-url: none; fill: none; fill-rule: nonzero; opacity: 1;" transform=" translate(-174.485, -17.9187)" d="m 112.29 20.2 c 37.098 -6.001 98.2 -4.911 124.39 -3.275" stroke-linecap="round"/>
</g>
		<g transform="matrix(1 0 0 1 -131.5525 32.056)" id="path186">
<path style="stroke: rgb(0,0,0); stroke-width: 1.3333; stroke-dasharray: none; stroke-linecap: butt; stroke-dashoffset: 0; stroke-linejoin: miter; stroke-miterlimit: 4; is-custom-font: none; font-file-url: none; fill: rgb(0,0,0); fill-opacity: 0.69; fill-rule: evenodd; opacity: 1;" transform=" translate(-47.8725, -426.736)" d="m 43.148 295.63 s 16.536 75.595 16.536 75.595 s 0 141.74 -2.362 144.1 c -2.363 2.362 -21.261 42.521 -21.261 42.521 s 4.724 -257.49 7.087 -262.22 z" stroke-linecap="round"/>
</g>
		<g transform="matrix(1 0 0 1 0.4039 143.047)" id="path211">
<path style="stroke: rgb(0,0,0); stroke-width: 1.3333; stroke-dasharray: none; stroke-linecap: butt; stroke-dashoffset: 0; stroke-linejoin: miter; stroke-miterlimit: 4; is-custom-font: none; font-file-url: none; fill: none; fill-rule: nonzero; opacity: 1;" transform=" translate(-179.8289, -537.7271)" d="m 36.35 310.53 c -2.333 25.667 -14.991 443.45 4.666 443.34 c 69.856 26.467 221.62 23.584 278.52 -7.0003 c 17.53 -0.0711 6.999 -417.68 4.666 -443.34" stroke-linecap="round"/>
</g>
		<g transform="matrix(1 0 0 1 133.0305 27.336)" id="path187">
<path style="stroke: rgb(0,0,0); stroke-width: 1.3333; stroke-dasharray: none; stroke-linecap: butt; stroke-dashoffset: 0; stroke-linejoin: miter; stroke-miterlimit: 4; is-custom-font: none; font-file-url: none; fill: rgb(0,0,0); fill-opacity: 0.75; fill-rule: evenodd; opacity: 1;" transform=" translate(-312.4555, -422.016)" d="m 317.18 290.91 s -16.536 75.595 -16.536 75.595 s 0 141.74 2.362 144.1 c 2.363 2.362 21.261 42.521 21.261 42.521 s -4.724 -257.49 -7.087 -262.22 z" stroke-linecap="round"/>
</g>
</g>
</g>
</svg>