<svg width="322" height="330" viewBox="0 0 322 330" fill="none" xmlns="http://www.w3.org/2000/svg">
<path d="M320.663 163.135L320.822 218.44L312.452 218.464L312.468 224.01L320.838 223.986L320.89 242.007L312.52 242.031L312.536 247.576L320.906 247.552L321.061 301.477L293.973 301.554L293.928 286.076L305.538 286.042L305.229 178.658L150.464 179.103L150.019 24.3416L42.6351 24.6502L42.6684 36.2554L27.1896 36.2999L27.1118 9.21196L113.782 8.96293L113.806 17.333L119.351 17.3171L119.327 8.947L137.348 8.89522L137.372 17.2653L142.917 17.2494L142.893 8.87928L165.454 8.81446L165.898 163.579L320.663 163.135Z" fill="#CCCCC9"/>
<path d="M305.229 178.657L305.538 286.041L293.928 286.074L293.653 190.299L138.888 190.744L138.444 35.979L94.1859 36.1062L94.1838 35.3902L62.4678 35.4814L61.7578 36.1994L42.6685 36.2542L42.6352 24.649L150.019 24.3404L150.464 179.101L305.229 178.657Z" fill="#CCCCC9"/>
<path d="M119.302 0.576065L119.351 17.3164L113.805 17.3323L113.757 0.591999L119.302 0.576065Z" fill="#CCCCC9"/>
<path d="M142.869 0.509659L142.917 17.25L137.372 17.2659L137.324 0.525593L142.869 0.509659Z" fill="#CCCCC9"/>
<path d="M94.1835 35.3915L94.1855 36.1074L61.7575 36.2006L62.4674 35.4826L94.1835 35.3915Z" fill="#CCCCC9"/>
<path d="M0.101512 36.378L0.94371 329.485L294.051 328.643L293.653 190.301L138.888 190.745L138.443 35.9805L0.101512 36.378Z" fill="#FDFDFE"/>
<path d="M278.527 313.207L16.3782 313.96L15.6249 51.815L123.009 51.5064L123.454 206.267L278.219 205.823L278.527 313.207Z" fill="#E6E5E4"/>
<path d="M259.148 294.506L258.951 226.012L101.261 226.465L101.458 294.959L259.148 294.506Z" fill="#FDFDFE"/>
<path d="M91.1983 86.0075L91.14 65.7071L111.44 65.6488L111.499 85.9492L91.1983 86.0075Z" fill="#FDFDFE"/>
<path d="M84.4604 181.363L84.4935 192.863L72.7441 204.68L29.1305 193.305L40.8798 181.488L84.4604 181.363Z" fill="#CBC9C7"/>
<path d="M72.7111 193.179L29.1305 193.304L29.1635 204.805L72.7441 204.68L72.7111 193.179Z" fill="#F8F8F8"/>
<path d="M35.7239 197.214L32.0787 197.225L32.0891 200.87L35.7344 200.859L35.7239 197.214Z" fill="#3E4B63"/>
<path d="M42.2444 197.195L38.5991 197.205L38.6096 200.85L42.2549 200.84L42.2444 197.195Z" fill="#3E4B63"/>
<path d="M48.761 197.175L45.1157 197.186L45.1262 200.831L48.7715 200.82L48.761 197.175Z" fill="#3E4B63"/>
<path d="M84.3257 134.486L84.3587 145.986L72.6094 157.803L28.9957 146.428L40.7451 134.611L84.3257 134.486Z" fill="#CBC9C7"/>
<path d="M72.5763 146.302L28.9957 146.427L29.0288 157.928L72.6094 157.803L72.5763 146.302Z" fill="#F8F8F8"/>
<path d="M35.5894 150.335L31.9441 150.346L31.9546 153.991L35.5999 153.98L35.5894 150.335Z" fill="#3E4B63"/>
<path d="M42.1099 150.318L38.4646 150.328L38.4751 153.973L42.1204 153.963L42.1099 150.318Z" fill="#3E4B63"/>
<path d="M48.6265 150.298L44.9812 150.309L44.9917 153.954L48.637 153.943L48.6265 150.298Z" fill="#3E4B63"/>
<path d="M92.2925 27.7421L86.7472 27.758L86.7953 44.4984L92.3406 44.4824L92.2925 27.7421Z" fill="#3E4B63"/>
<path d="M115.859 27.6737L110.314 27.6897L110.362 44.43L115.907 44.4141L115.859 27.6737Z" fill="#3E4B63"/>
<path d="M110.328 32.7402L92.3069 32.792L92.2994 30.1683L110.321 30.1166L110.328 32.7402Z" fill="#3E4B63"/>
<path d="M302.198 251.127L302.182 245.582L285.442 245.63L285.458 251.175L302.198 251.127Z" fill="#3E4B63"/>
<path d="M302.266 274.693L302.25 269.148L285.509 269.196L285.525 274.741L302.266 274.693Z" fill="#3E4B63"/>
<path d="M297.204 269.164L297.152 251.143L299.772 251.135L299.823 269.156L297.204 269.164Z" fill="#3E4B63"/>
<path d="M67.1735 62.5565L67.293 104.14L60.5135 110.959L35.5769 104.231L28.6817 69.4663L35.4574 62.6477L67.1735 62.5565Z" fill="#CBC9C7"/>
<path d="M60.5134 110.959L28.8012 111.05L28.6817 69.4663L60.3939 69.3752L60.5134 110.959Z" fill="#F8F8F8"/>
<path d="M56.0187 86.0396C56.0368 92.3549 50.9319 97.4854 44.6204 97.5035C38.3051 97.5217 33.1707 92.4206 33.1526 86.1053C33.1345 79.7899 38.2394 74.6556 44.5547 74.6374C50.8662 74.6193 56.0005 79.7242 56.0187 86.0396Z" fill="#3E4B63"/>
<path d="M48.5423 86.0608C48.5486 88.2472 46.7814 90.0207 44.5989 90.027C42.4125 90.0333 40.6351 88.2699 40.6288 86.0835C40.6225 83.8972 42.3898 82.1197 44.5761 82.1135C46.7587 82.1072 48.5361 83.8744 48.5423 86.0608Z" fill="#F8F8F8"/>
<path d="M46.6038 86.066C46.607 87.1804 45.708 88.0885 44.5935 88.0917C43.4752 88.0949 42.5709 87.192 42.5677 86.0776C42.5645 84.9631 43.4636 84.055 44.5819 84.0518C45.6964 84.0486 46.6006 84.9515 46.6038 86.066Z" fill="white"/>
<path d="M47.4063 85.2116C47.4063 85.2116 49.0467 82.3937 51.6657 82.092C54.2846 81.7943 55.4647 87.1195 53.0472 90.1874C50.9087 88.0149 47.4119 87.1503 47.4119 87.1503L47.4063 85.2116Z" fill="#F8F8F8"/>
<path d="M42.4304 84.0576C42.4304 84.0576 39.1682 84.0437 37.6026 81.9276C36.0332 79.8076 40.0548 76.1237 43.9184 76.6853C43.1065 79.6248 44.1071 83.0814 44.1071 83.0814L42.4304 84.0576Z" fill="#F8F8F8"/>
<path d="M43.9188 88.9451C43.9188 88.9451 45.5406 91.777 44.4911 94.1908C43.4377 96.6086 38.2398 94.9672 36.7899 91.3416C39.7441 90.5746 42.2365 87.9786 42.2365 87.9786L43.9188 88.9451Z" fill="#F8F8F8"/>
<path d="M46.1133 106.594L51.5077 106.578C52.003 106.577 52.4066 106.978 52.4081 107.473C52.4095 107.973 52.0082 108.376 51.5129 108.378L46.1185 108.393C45.6193 108.395 45.2157 107.993 45.2143 107.494C45.2129 106.999 45.6141 106.595 46.1133 106.594Z" fill="#3E4B63"/>
<path d="M37.7819 106.617L43.1801 106.602C43.6754 106.6 44.079 107.001 44.0804 107.497C44.0819 107.996 43.6806 108.4 43.1853 108.401L37.787 108.417C37.2917 108.418 36.8881 108.017 36.8867 107.517C36.8852 107.022 37.2865 106.619 37.7819 106.617Z" fill="#3E4B63"/>
<path d="M46.1038 103.293L51.4982 103.277C51.9935 103.276 52.3971 103.677 52.3985 104.173C52.4 104.668 51.9987 105.071 51.5034 105.073L46.109 105.088C45.6098 105.09 45.2062 104.689 45.2048 104.193C45.2034 103.698 45.6046 103.294 46.1038 103.293Z" fill="#3E4B63"/>
<path d="M37.7724 103.316L43.1706 103.301C43.6659 103.299 44.0695 103.701 44.0709 104.196C44.0723 104.691 43.6711 105.095 43.1757 105.096L37.7775 105.112C37.2822 105.113 36.8786 104.712 36.8771 104.217C36.8757 103.721 37.277 103.318 37.7724 103.316Z" fill="#3E4B63"/>
<path d="M46.0943 99.9882L51.4887 99.9727C51.984 99.9713 52.3876 100.373 52.389 100.868C52.3904 101.367 51.9892 101.771 51.4939 101.772L46.0995 101.788C45.6003 101.789 45.1967 101.388 45.1952 100.889C45.1938 100.393 45.5951 99.9897 46.0943 99.9882Z" fill="#3E4B63"/>
<path d="M37.7628 100.012L43.161 99.9962C43.6564 99.9948 44.06 100.396 44.0614 100.891C44.0628 101.391 43.6615 101.794 43.1662 101.796L37.768 101.811C37.2727 101.812 36.869 101.411 36.8676 100.912C36.8662 100.417 37.2675 100.013 37.7628 100.012Z" fill="#3E4B63"/>
<path d="M29.4069 289.424L29.4234 295.167L35.1621 295.15L35.1456 289.408L29.4069 289.424Z" fill="#3E4B63"/>
<path d="M29.3803 280.28L29.3967 286.018L35.1355 286.002L35.119 280.263L29.3803 280.28Z" fill="#3E4B63"/>
<path d="M29.3541 271.131L29.3706 276.87L35.1094 276.854L35.0929 271.115L29.3541 271.131Z" fill="#3E4B63"/>
<path d="M176.481 223.727L176.488 226.25L125.493 226.397L128.009 223.866L176.481 223.727Z" fill="#CBC9C7"/>
<path d="M176.488 226.25L176.617 271.247L163.34 284.601L114.85 278.371L114.731 237.224L125.493 226.396L176.488 226.25Z" fill="#E2E1DF"/>
<path d="M163.199 237.084L163.336 284.6L114.868 284.739L114.731 237.223L163.199 237.084Z" fill="#DB2B24"/>
<path d="M163.199 237.084L163.336 284.6L139.104 284.669L138.967 237.153L163.199 237.084Z" fill="#B22523"/>
<path d="M114.868 284.739L139.036 260.909L163.336 284.6L114.868 284.739Z" fill="#F1464C"/>
<path d="M114.732 237.225L139.036 260.911L163.2 237.086L114.732 237.225Z" fill="#A02120"/>
<path d="M107 77L103 77L103 81L99 81L99 77L95 77L95 73L99 73L99 69L103 69L103 73L107 73" fill="#E9232D"/>
<path d="M232.2 255.55L232.2 273L228.7 273L228.7 265.575L221.225 265.575L221.225 273L217.725 273L217.725 255.55L221.225 255.55L221.225 262.725L228.7 262.725L228.7 255.55L232.2 255.55Z" fill="#4751AC"/>
<circle cx="225" cy="264" r="16.5" stroke="#4751AC"/>
</svg>
