<svg width="127" height="10595" viewBox="0 0 127 10595" fill="none" xmlns="http://www.w3.org/2000/svg">
<path d="M0 0.000390748V625.303H126.065V0.000390748H0Z" fill="#FDE829"/>
<path d="M9.37793 0.000390748V625.303H116.69V0.000390748H9.37793Z" fill="#42424A"/>
<path d="M59.5156 49.8779H66.5537V26.9661H59.5156V49.8779Z" fill="white"/>
<path d="M59.5156 101.864H66.5537V78.9556H59.5156V101.864Z" fill="white"/>
<path d="M59.5156 153.854H66.5537V130.942H59.5156V153.854Z" fill="white"/>
<path d="M59.5156 205.843H66.5537V182.931H59.5156V205.843Z" fill="white"/>
<path d="M58.0684 266.766H64.9353V244.414H58.0684V266.766Z" fill="white"/>
<path d="M58.0684 317.492H64.9353V295.137H58.0684V317.492Z" fill="white"/>
<path d="M59.5156 361.811H66.5537V338.901H59.5156V361.811Z" fill="white"/>
<path d="M59.5156 413.799H66.5537V390.887H59.5156V413.799Z" fill="white"/>
<path d="M59.5156 465.789H66.5537V442.876H59.5156V465.789Z" fill="white"/>
<path d="M59.5156 517.774H66.5537V494.867H59.5156V517.774Z" fill="white"/>
<path d="M59.5156 569.767H66.5537V546.855H59.5156V569.767Z" fill="white"/>
<path d="M59.5156 621.754H66.5537V598.845H59.5156V621.754Z" fill="white"/>
<rect x="12" y="293.312" width="103" height="41" fill="#42424A"/>
<g opacity="0.9" filter="url(#filter0_b_904_2140)">
<path d="M20.6504 324.381H25.813V292H20.6504V324.381Z" fill="white"/>
</g>
<g opacity="0.9" filter="url(#filter1_b_904_2140)">
<path d="M34.0732 324.381H39.2358V292H34.0732V324.381Z" fill="white"/>
</g>
<g opacity="0.9" filter="url(#filter2_b_904_2140)">
<path d="M47.4956 324.381H52.6582V292H47.4956V324.381Z" fill="white"/>
</g>
<g opacity="0.9" filter="url(#filter3_b_904_2140)">
<path d="M60.9185 324.381H66.0811V292H60.9185V324.381Z" fill="white"/>
</g>
<g opacity="0.9" filter="url(#filter4_b_904_2140)">
<path d="M74.3413 324.381H79.5039V292H74.3413V324.381Z" fill="white"/>
</g>
<g opacity="0.9" filter="url(#filter5_b_904_2140)">
<path d="M87.7642 324.381H92.9268V292H87.7642V324.381Z" fill="white"/>
</g>
<g opacity="0.9" filter="url(#filter6_b_904_2140)">
<path d="M101.187 324.381H106.35V292H101.187V324.381Z" fill="white"/>
</g>
<path d="M0 625.303V1250.61H126.065V625.303H0Z" fill="#FDE829"/>
<path d="M9.37793 625.303V1250.61H116.69V625.303H9.37793Z" fill="#42424A"/>
<path d="M59.5156 675.181H66.5537V652.269H59.5156V675.181Z" fill="white"/>
<path d="M59.5156 727.167H66.5537V704.258H59.5156V727.167Z" fill="white"/>
<path d="M59.5156 779.156H66.5537V756.244H59.5156V779.156Z" fill="white"/>
<path d="M59.5156 831.146H66.5537V808.234H59.5156V831.146Z" fill="white"/>
<path d="M58.0684 892.067H64.9353V869.716H58.0684V892.067Z" fill="white"/>
<path d="M58.0684 942.795H64.9353V920.44H58.0684V942.795Z" fill="white"/>
<path d="M59.5156 987.113H66.5537V964.204H59.5156V987.113Z" fill="white"/>
<path d="M59.5156 1039.1H66.5537V1016.19H59.5156V1039.1Z" fill="white"/>
<path d="M59.5156 1091.09H66.5537V1068.18H59.5156V1091.09Z" fill="white"/>
<path d="M59.5156 1143.08H66.5537V1120.17H59.5156V1143.08Z" fill="white"/>
<path d="M59.5156 1195.07H66.5537V1172.16H59.5156V1195.07Z" fill="white"/>
<path d="M59.5156 1247.06H66.5537V1224.15H59.5156V1247.06Z" fill="white"/>
<path d="M0 1247V1872.3H126.065V1247H0Z" fill="#FDE829"/>
<path d="M9.37793 1247V1872.3H116.69V1247H9.37793Z" fill="#42424A"/>
<path d="M59.5156 1296.88H66.5537V1273.97H59.5156V1296.88Z" fill="white"/>
<path d="M59.5156 1348.86H66.5537V1325.96H59.5156V1348.86Z" fill="white"/>
<path d="M59.5156 1400.85H66.5537V1377.94H59.5156V1400.85Z" fill="white"/>
<path d="M59.5156 1452.84H66.5537V1429.93H59.5156V1452.84Z" fill="white"/>
<path d="M58.0684 1513.77H64.9353V1491.41H58.0684V1513.77Z" fill="white"/>
<path d="M58.0684 1564.49H64.9353V1542.14H58.0684V1564.49Z" fill="white"/>
<path d="M59.5156 1608.81H66.5537V1585.9H59.5156V1608.81Z" fill="white"/>
<path d="M59.5156 1660.8H66.5537V1637.89H59.5156V1660.8Z" fill="white"/>
<path d="M59.5156 1712.79H66.5537V1689.88H59.5156V1712.79Z" fill="white"/>
<path d="M59.5156 1764.77H66.5537V1741.87H59.5156V1764.77Z" fill="white"/>
<path d="M59.5156 1816.77H66.5537V1793.86H59.5156V1816.77Z" fill="white"/>
<path d="M59.5156 1868.75H66.5537V1845.84H59.5156V1868.75Z" fill="white"/>
<path d="M0 1872.3V2497.61H126.065V1872.3H0Z" fill="#FDE829"/>
<path d="M9.37793 1872.3V2497.61H116.69V1872.3H9.37793Z" fill="#42424A"/>
<path d="M59.5156 1922.18H66.5537V1899.27H59.5156V1922.18Z" fill="white"/>
<path d="M59.5156 1974.17H66.5537V1951.26H59.5156V1974.17Z" fill="white"/>
<path d="M59.5156 2026.16H66.5537V2003.24H59.5156V2026.16Z" fill="white"/>
<path d="M59.5156 2078.15H66.5537V2055.23H59.5156V2078.15Z" fill="white"/>
<path d="M58.0684 2139.07H64.9353V2116.72H58.0684V2139.07Z" fill="white"/>
<path d="M58.0684 2189.79H64.9353V2167.44H58.0684V2189.79Z" fill="white"/>
<path d="M59.5156 2234.11H66.5537V2211.2H59.5156V2234.11Z" fill="white"/>
<path d="M59.5156 2286.1H66.5537V2263.19H59.5156V2286.1Z" fill="white"/>
<path d="M59.5156 2338.09H66.5537V2315.18H59.5156V2338.09Z" fill="white"/>
<path d="M59.5156 2390.08H66.5537V2367.17H59.5156V2390.08Z" fill="white"/>
<path d="M59.5156 2442.07H66.5537V2419.16H59.5156V2442.07Z" fill="white"/>
<path d="M59.5156 2494.06H66.5537V2471.15H59.5156V2494.06Z" fill="white"/>
<path d="M0 2494V3119.3H126.065V2494H0Z" fill="#FDE829"/>
<path d="M9.37793 2494V3119.3H116.69V2494H9.37793Z" fill="#42424A"/>
<path d="M59.5156 2543.88H66.5537V2520.97H59.5156V2543.88Z" fill="white"/>
<path d="M59.5156 2595.86H66.5537V2572.96H59.5156V2595.86Z" fill="white"/>
<path d="M59.5156 2647.85H66.5537V2624.94H59.5156V2647.85Z" fill="white"/>
<path d="M59.5156 2699.84H66.5537V2676.93H59.5156V2699.84Z" fill="white"/>
<path d="M58.0684 2760.77H64.9353V2738.41H58.0684V2760.77Z" fill="white"/>
<path d="M58.0684 2811.49H64.9353V2789.14H58.0684V2811.49Z" fill="white"/>
<path d="M59.5156 2855.81H66.5537V2832.9H59.5156V2855.81Z" fill="white"/>
<path d="M59.5156 2907.8H66.5537V2884.89H59.5156V2907.8Z" fill="white"/>
<path d="M59.5156 2959.79H66.5537V2936.88H59.5156V2959.79Z" fill="white"/>
<path d="M59.5156 3011.78H66.5537V2988.87H59.5156V3011.78Z" fill="white"/>
<path d="M59.5156 3063.77H66.5537V3040.85H59.5156V3063.77Z" fill="white"/>
<path d="M59.5156 3115.75H66.5537V3092.84H59.5156V3115.75Z" fill="white"/>
<path d="M0 3119.3V3744.61H126.065V3119.3H0Z" fill="#FDE829"/>
<path d="M9.37793 3119.3V3744.61H116.69V3119.3H9.37793Z" fill="#42424A"/>
<path d="M59.5156 3169.18H66.5537V3146.27H59.5156V3169.18Z" fill="white"/>
<path d="M59.5156 3221.17H66.5537V3198.26H59.5156V3221.17Z" fill="white"/>
<path d="M59.5156 3273.16H66.5537V3250.24H59.5156V3273.16Z" fill="white"/>
<path d="M59.5156 3325.15H66.5537V3302.23H59.5156V3325.15Z" fill="white"/>
<path d="M58.0684 3386.07H64.9353V3363.72H58.0684V3386.07Z" fill="white"/>
<path d="M58.0684 3436.79H64.9353V3414.44H58.0684V3436.79Z" fill="white"/>
<path d="M59.5156 3481.11H66.5537V3458.2H59.5156V3481.11Z" fill="white"/>
<path d="M59.5156 3533.1H66.5537V3510.19H59.5156V3533.1Z" fill="white"/>
<path d="M59.5156 3585.09H66.5537V3562.18H59.5156V3585.09Z" fill="white"/>
<path d="M59.5156 3637.08H66.5537V3614.17H59.5156V3637.08Z" fill="white"/>
<path d="M59.5156 3689.07H66.5537V3666.16H59.5156V3689.07Z" fill="white"/>
<path d="M59.5156 3741.06H66.5537V3718.15H59.5156V3741.06Z" fill="white"/>
<path d="M0 3741V4366.3H126.065V3741H0Z" fill="#FDE829"/>
<path d="M9.37793 3741V4366.3H116.69V3741H9.37793Z" fill="#42424A"/>
<path d="M59.5156 3790.88H66.5537V3767.97H59.5156V3790.88Z" fill="white"/>
<path d="M59.5156 3842.86H66.5537V3819.95H59.5156V3842.86Z" fill="white"/>
<path d="M59.5156 3894.85H66.5537V3871.94H59.5156V3894.85Z" fill="white"/>
<path d="M59.5156 3946.84H66.5537V3923.93H59.5156V3946.84Z" fill="white"/>
<path d="M58.0684 4007.77H64.9353V3985.41H58.0684V4007.77Z" fill="white"/>
<path d="M58.0684 4058.49H64.9353V4036.14H58.0684V4058.49Z" fill="white"/>
<path d="M59.5156 4102.81H66.5537V4079.9H59.5156V4102.81Z" fill="white"/>
<path d="M59.5156 4154.8H66.5537V4131.89H59.5156V4154.8Z" fill="white"/>
<path d="M59.5156 4206.79H66.5537V4183.88H59.5156V4206.79Z" fill="white"/>
<path d="M59.5156 4258.78H66.5537V4235.87H59.5156V4258.78Z" fill="white"/>
<path d="M59.5156 4310.77H66.5537V4287.85H59.5156V4310.77Z" fill="white"/>
<path d="M59.5156 4362.75H66.5537V4339.84H59.5156V4362.75Z" fill="white"/>
<path d="M0 4366.3V4991.61H126.065V4366.3H0Z" fill="#FDE829"/>
<path d="M9.37793 4366.3V4991.61H116.69V4366.3H9.37793Z" fill="#42424A"/>
<path d="M59.5156 4416.18H66.5537V4393.27H59.5156V4416.18Z" fill="white"/>
<path d="M59.5156 4468.17H66.5537V4445.26H59.5156V4468.17Z" fill="white"/>
<path d="M59.5156 4520.16H66.5537V4497.24H59.5156V4520.16Z" fill="white"/>
<path d="M59.5156 4572.15H66.5537V4549.23H59.5156V4572.15Z" fill="white"/>
<path d="M58.0684 4633.07H64.9353V4610.72H58.0684V4633.07Z" fill="white"/>
<path d="M58.0684 4683.79H64.9353V4661.44H58.0684V4683.79Z" fill="white"/>
<path d="M59.5156 4728.11H66.5537V4705.2H59.5156V4728.11Z" fill="white"/>
<path d="M59.5156 4780.1H66.5537V4757.19H59.5156V4780.1Z" fill="white"/>
<path d="M59.5156 4832.09H66.5537V4809.18H59.5156V4832.09Z" fill="white"/>
<path d="M59.5156 4884.08H66.5537V4861.17H59.5156V4884.08Z" fill="white"/>
<path d="M59.5156 4936.07H66.5537V4913.16H59.5156V4936.07Z" fill="white"/>
<path d="M59.5156 4988.06H66.5537V4965.15H59.5156V4988.06Z" fill="white"/>
<path d="M0 4988V5613.3H126.065V4988H0Z" fill="#FDE829"/>
<path d="M9.37793 4988V5613.3H116.69V4988H9.37793Z" fill="#42424A"/>
<path d="M59.5156 5037.88H66.5537V5014.96H59.5156V5037.88Z" fill="white"/>
<path d="M59.5156 5089.86H66.5537V5066.95H59.5156V5089.86Z" fill="white"/>
<path d="M59.5156 5141.85H66.5537V5118.94H59.5156V5141.85Z" fill="white"/>
<path d="M59.5156 5193.84H66.5537V5170.93H59.5156V5193.84Z" fill="white"/>
<path d="M58.0684 5254.77H64.9353V5232.41H58.0684V5254.77Z" fill="white"/>
<path d="M58.0684 5305.49H64.9353V5283.14H58.0684V5305.49Z" fill="white"/>
<path d="M59.5156 5349.81H66.5537V5326.9H59.5156V5349.81Z" fill="white"/>
<path d="M59.5156 5401.8H66.5537V5378.89H59.5156V5401.8Z" fill="white"/>
<path d="M59.5156 5453.79H66.5537V5430.88H59.5156V5453.79Z" fill="white"/>
<path d="M59.5156 5505.78H66.5537V5482.87H59.5156V5505.78Z" fill="white"/>
<path d="M59.5156 5557.77H66.5537V5534.85H59.5156V5557.77Z" fill="white"/>
<path d="M59.5156 5609.75H66.5537V5586.84H59.5156V5609.75Z" fill="white"/>
<path d="M0 5613.3V6238.61H126.065V5613.3H0Z" fill="#FDE829"/>
<path d="M9.37793 5613.3V6238.61H116.69V5613.3H9.37793Z" fill="#42424A"/>
<path d="M59.5156 5663.18H66.5537V5640.27H59.5156V5663.18Z" fill="white"/>
<path d="M59.5156 5715.17H66.5537V5692.26H59.5156V5715.17Z" fill="white"/>
<path d="M59.5156 5767.16H66.5537V5744.24H59.5156V5767.16Z" fill="white"/>
<path d="M59.5156 5819.15H66.5537V5796.23H59.5156V5819.15Z" fill="white"/>
<path d="M58.0684 5880.07H64.9353V5857.72H58.0684V5880.07Z" fill="white"/>
<path d="M58.0684 5930.79H64.9353V5908.44H58.0684V5930.79Z" fill="white"/>
<path d="M59.5156 5975.11H66.5537V5952.2H59.5156V5975.11Z" fill="white"/>
<path d="M59.5156 6027.1H66.5537V6004.19H59.5156V6027.1Z" fill="white"/>
<path d="M59.5156 6079.09H66.5537V6056.18H59.5156V6079.09Z" fill="white"/>
<path d="M59.5156 6131.08H66.5537V6108.17H59.5156V6131.08Z" fill="white"/>
<path d="M59.5156 6183.07H66.5537V6160.16H59.5156V6183.07Z" fill="white"/>
<path d="M59.5156 6235.06H66.5537V6212.15H59.5156V6235.06Z" fill="white"/>
<path d="M0 6235V6860.3H126.065V6235H0Z" fill="#FDE829"/>
<path d="M9.37793 6235V6860.3H116.69V6235H9.37793Z" fill="#42424A"/>
<path d="M59.5156 6284.88H66.5537V6261.96H59.5156V6284.88Z" fill="white"/>
<path d="M59.5156 6336.86H66.5537V6313.95H59.5156V6336.86Z" fill="white"/>
<path d="M59.5156 6388.85H66.5537V6365.94H59.5156V6388.85Z" fill="white"/>
<path d="M59.5156 6440.84H66.5537V6417.93H59.5156V6440.84Z" fill="white"/>
<path d="M58.0684 6501.77H64.9353V6479.41H58.0684V6501.77Z" fill="white"/>
<path d="M58.0684 6552.49H64.9353V6530.14H58.0684V6552.49Z" fill="white"/>
<path d="M59.5156 6596.81H66.5537V6573.9H59.5156V6596.81Z" fill="white"/>
<path d="M59.5156 6648.8H66.5537V6625.89H59.5156V6648.8Z" fill="white"/>
<path d="M59.5156 6700.79H66.5537V6677.88H59.5156V6700.79Z" fill="white"/>
<path d="M59.5156 6752.78H66.5537V6729.87H59.5156V6752.78Z" fill="white"/>
<path d="M59.5156 6804.77H66.5537V6781.85H59.5156V6804.77Z" fill="white"/>
<path d="M59.5156 6856.75H66.5537V6833.84H59.5156V6856.75Z" fill="white"/>
<path d="M0 6860.3V7485.61H126.065V6860.3H0Z" fill="#FDE829"/>
<path d="M9.37793 6860.3V7485.61H116.69V6860.3H9.37793Z" fill="#42424A"/>
<path d="M59.5156 6910.18H66.5537V6887.27H59.5156V6910.18Z" fill="white"/>
<path d="M59.5156 6962.17H66.5537V6939.26H59.5156V6962.17Z" fill="white"/>
<path d="M59.5156 7014.16H66.5537V6991.24H59.5156V7014.16Z" fill="white"/>
<path d="M59.5156 7066.15H66.5537V7043.23H59.5156V7066.15Z" fill="white"/>
<path d="M58.0684 7127.07H64.9353V7104.72H58.0684V7127.07Z" fill="white"/>
<path d="M58.0684 7177.79H64.9353V7155.44H58.0684V7177.79Z" fill="white"/>
<path d="M59.5156 7222.11H66.5537V7199.2H59.5156V7222.11Z" fill="white"/>
<path d="M59.5156 7274.1H66.5537V7251.19H59.5156V7274.1Z" fill="white"/>
<path d="M59.5156 7326.09H66.5537V7303.18H59.5156V7326.09Z" fill="white"/>
<path d="M59.5156 7378.08H66.5537V7355.17H59.5156V7378.08Z" fill="white"/>
<path d="M59.5156 7430.07H66.5537V7407.16H59.5156V7430.07Z" fill="white"/>
<path d="M59.5156 7482.06H66.5537V7459.15H59.5156V7482.06Z" fill="white"/>
<path d="M0 7481V8106.3H126.065V7481H0Z" fill="#FDE829"/>
<path d="M9.37793 7481V8106.3H116.69V7481H9.37793Z" fill="#42424A"/>
<path d="M59.5156 7530.88H66.5537V7507.96H59.5156V7530.88Z" fill="white"/>
<path d="M59.5156 7582.86H66.5537V7559.95H59.5156V7582.86Z" fill="white"/>
<path d="M59.5156 7634.85H66.5537V7611.94H59.5156V7634.85Z" fill="white"/>
<path d="M59.5156 7686.84H66.5537V7663.93H59.5156V7686.84Z" fill="white"/>
<path d="M58.0684 7747.77H64.9353V7725.41H58.0684V7747.77Z" fill="white"/>
<path d="M58.0684 7798.49H64.9353V7776.14H58.0684V7798.49Z" fill="white"/>
<path d="M59.5156 7842.81H66.5537V7819.9H59.5156V7842.81Z" fill="white"/>
<path d="M59.5156 7894.8H66.5537V7871.89H59.5156V7894.8Z" fill="white"/>
<path d="M59.5156 7946.79H66.5537V7923.88H59.5156V7946.79Z" fill="white"/>
<path d="M59.5156 7998.78H66.5537V7975.87H59.5156V7998.78Z" fill="white"/>
<path d="M59.5156 8050.77H66.5537V8027.85H59.5156V8050.77Z" fill="white"/>
<path d="M59.5156 8102.75H66.5537V8079.84H59.5156V8102.75Z" fill="white"/>
<path d="M0 8103V8728.3H126.065V8103H0Z" fill="#FDE829"/>
<path d="M9.37793 8103V8728.3H116.69V8103H9.37793Z" fill="#42424A"/>
<path d="M59.5156 8152.88H66.5537V8129.96H59.5156V8152.88Z" fill="white"/>
<path d="M59.5156 8204.86H66.5537V8181.95H59.5156V8204.86Z" fill="white"/>
<path d="M59.5156 8256.85H66.5537V8233.94H59.5156V8256.85Z" fill="white"/>
<path d="M59.5156 8308.84H66.5537V8285.93H59.5156V8308.84Z" fill="white"/>
<path d="M58.0684 8369.77H64.9353V8347.41H58.0684V8369.77Z" fill="white"/>
<path d="M58.0684 8420.49H64.9353V8398.14H58.0684V8420.49Z" fill="white"/>
<path d="M59.5156 8464.81H66.5537V8441.9H59.5156V8464.81Z" fill="white"/>
<path d="M59.5156 8516.8H66.5537V8493.89H59.5156V8516.8Z" fill="white"/>
<path d="M59.5156 8568.79H66.5537V8545.88H59.5156V8568.79Z" fill="white"/>
<path d="M59.5156 8620.78H66.5537V8597.87H59.5156V8620.78Z" fill="white"/>
<path d="M59.5156 8672.77H66.5537V8649.85H59.5156V8672.77Z" fill="white"/>
<path d="M59.5156 8724.75H66.5537V8701.84H59.5156V8724.75Z" fill="white"/>
<path d="M0 9347V9972.3H126.065V9347H0Z" fill="#FDE829"/>
<path d="M9.37793 9347V9972.3H116.69V9347H9.37793Z" fill="#42424A"/>
<path d="M59.5156 9396.88H66.5537V9373.96H59.5156V9396.88Z" fill="white"/>
<path d="M59.5156 9448.86H66.5537V9425.95H59.5156V9448.86Z" fill="white"/>
<path d="M59.5156 9500.85H66.5537V9477.94H59.5156V9500.85Z" fill="white"/>
<path d="M59.5156 9552.84H66.5537V9529.93H59.5156V9552.84Z" fill="white"/>
<path d="M58.0684 9613.77H64.9353V9591.41H58.0684V9613.77Z" fill="white"/>
<path d="M58.0684 9664.49H64.9353V9642.14H58.0684V9664.49Z" fill="white"/>
<path d="M59.5156 9708.81H66.5537V9685.9H59.5156V9708.81Z" fill="white"/>
<path d="M59.5156 9760.8H66.5537V9737.89H59.5156V9760.8Z" fill="white"/>
<path d="M59.5156 9812.79H66.5537V9789.88H59.5156V9812.79Z" fill="white"/>
<path d="M59.5156 9864.78H66.5537V9841.87H59.5156V9864.78Z" fill="white"/>
<path d="M59.5156 9916.77H66.5537V9893.85H59.5156V9916.77Z" fill="white"/>
<path d="M59.5156 9968.75H66.5537V9945.84H59.5156V9968.75Z" fill="white"/>
<path d="M0 8725V9350.3H126.065V8725H0Z" fill="#FDE829"/>
<path d="M9.37793 8725V9350.3H116.69V8725H9.37793Z" fill="#42424A"/>
<path d="M59.5156 8774.88H66.5537V8751.96H59.5156V8774.88Z" fill="white"/>
<path d="M59.5156 8826.86H66.5537V8803.95H59.5156V8826.86Z" fill="white"/>
<path d="M59.5156 8878.85H66.5537V8855.94H59.5156V8878.85Z" fill="white"/>
<path d="M59.5156 8930.84H66.5537V8907.93H59.5156V8930.84Z" fill="white"/>
<path d="M58.0684 8991.77H64.9353V8969.41H58.0684V8991.77Z" fill="white"/>
<path d="M58.0684 9042.49H64.9353V9020.14H58.0684V9042.49Z" fill="white"/>
<path d="M59.5156 9086.81H66.5537V9063.9H59.5156V9086.81Z" fill="white"/>
<path d="M59.5156 9138.8H66.5537V9115.89H59.5156V9138.8Z" fill="white"/>
<path d="M59.5156 9190.79H66.5537V9167.88H59.5156V9190.79Z" fill="white"/>
<path d="M59.5156 9242.78H66.5537V9219.87H59.5156V9242.78Z" fill="white"/>
<path d="M59.5156 9294.77H66.5537V9271.85H59.5156V9294.77Z" fill="white"/>
<path d="M59.5156 9346.75H66.5537V9323.84H59.5156V9346.75Z" fill="white"/>
<path d="M0 9969V10594.3H126.065V9969H0Z" fill="#FDE829"/>
<path d="M9.37793 9969V10594.3H116.69V9969H9.37793Z" fill="#42424A"/>
<path d="M59.5156 10018.9H66.5537V9995.96H59.5156V10018.9Z" fill="white"/>
<path d="M59.5156 10070.9H66.5537V10048H59.5156V10070.9Z" fill="white"/>
<path d="M59.5156 10122.9H66.5537V10099.9H59.5156V10122.9Z" fill="white"/>
<path d="M59.5156 10174.8H66.5537V10151.9H59.5156V10174.8Z" fill="white"/>
<path d="M58.0684 10235.8H64.9353V10213.4H58.0684V10235.8Z" fill="white"/>
<path d="M58.0684 10286.5H64.9353V10264.1H58.0684V10286.5Z" fill="white"/>
<path d="M59.5156 10330.8H66.5537V10307.9H59.5156V10330.8Z" fill="white"/>
<path d="M59.5156 10382.8H66.5537V10359.9H59.5156V10382.8Z" fill="white"/>
<path d="M59.5156 10434.8H66.5537V10411.9H59.5156V10434.8Z" fill="white"/>
<path d="M59.5156 10486.8H66.5537V10463.9H59.5156V10486.8Z" fill="white"/>
<path d="M59.5156 10538.8H66.5537V10515.9H59.5156V10538.8Z" fill="white"/>
<path d="M59.5156 10590.8H66.5537V10567.8H59.5156V10590.8Z" fill="white"/>
<defs>
<filter id="filter0_b_904_2140" x="16.6504" y="288" width="13.1626" height="40.3809" filterUnits="userSpaceOnUse" color-interpolation-filters="sRGB">
<feFlood flood-opacity="0" result="BackgroundImageFix"/>
<feGaussianBlur in="BackgroundImageFix" stdDeviation="2"/>
<feComposite in2="SourceAlpha" operator="in" result="effect1_backgroundBlur_904_2140"/>
<feBlend mode="normal" in="SourceGraphic" in2="effect1_backgroundBlur_904_2140" result="shape"/>
</filter>
<filter id="filter1_b_904_2140" x="30.0732" y="288" width="13.1626" height="40.3809" filterUnits="userSpaceOnUse" color-interpolation-filters="sRGB">
<feFlood flood-opacity="0" result="BackgroundImageFix"/>
<feGaussianBlur in="BackgroundImageFix" stdDeviation="2"/>
<feComposite in2="SourceAlpha" operator="in" result="effect1_backgroundBlur_904_2140"/>
<feBlend mode="normal" in="SourceGraphic" in2="effect1_backgroundBlur_904_2140" result="shape"/>
</filter>
<filter id="filter2_b_904_2140" x="43.4956" y="288" width="13.1626" height="40.3809" filterUnits="userSpaceOnUse" color-interpolation-filters="sRGB">
<feFlood flood-opacity="0" result="BackgroundImageFix"/>
<feGaussianBlur in="BackgroundImageFix" stdDeviation="2"/>
<feComposite in2="SourceAlpha" operator="in" result="effect1_backgroundBlur_904_2140"/>
<feBlend mode="normal" in="SourceGraphic" in2="effect1_backgroundBlur_904_2140" result="shape"/>
</filter>
<filter id="filter3_b_904_2140" x="56.9185" y="288" width="13.1626" height="40.3809" filterUnits="userSpaceOnUse" color-interpolation-filters="sRGB">
<feFlood flood-opacity="0" result="BackgroundImageFix"/>
<feGaussianBlur in="BackgroundImageFix" stdDeviation="2"/>
<feComposite in2="SourceAlpha" operator="in" result="effect1_backgroundBlur_904_2140"/>
<feBlend mode="normal" in="SourceGraphic" in2="effect1_backgroundBlur_904_2140" result="shape"/>
</filter>
<filter id="filter4_b_904_2140" x="70.3413" y="288" width="13.1626" height="40.3809" filterUnits="userSpaceOnUse" color-interpolation-filters="sRGB">
<feFlood flood-opacity="0" result="BackgroundImageFix"/>
<feGaussianBlur in="BackgroundImageFix" stdDeviation="2"/>
<feComposite in2="SourceAlpha" operator="in" result="effect1_backgroundBlur_904_2140"/>
<feBlend mode="normal" in="SourceGraphic" in2="effect1_backgroundBlur_904_2140" result="shape"/>
</filter>
<filter id="filter5_b_904_2140" x="83.7642" y="288" width="13.1626" height="40.3809" filterUnits="userSpaceOnUse" color-interpolation-filters="sRGB">
<feFlood flood-opacity="0" result="BackgroundImageFix"/>
<feGaussianBlur in="BackgroundImageFix" stdDeviation="2"/>
<feComposite in2="SourceAlpha" operator="in" result="effect1_backgroundBlur_904_2140"/>
<feBlend mode="normal" in="SourceGraphic" in2="effect1_backgroundBlur_904_2140" result="shape"/>
</filter>
<filter id="filter6_b_904_2140" x="97.187" y="288" width="13.1626" height="40.3809" filterUnits="userSpaceOnUse" color-interpolation-filters="sRGB">
<feFlood flood-opacity="0" result="BackgroundImageFix"/>
<feGaussianBlur in="BackgroundImageFix" stdDeviation="2"/>
<feComposite in2="SourceAlpha" operator="in" result="effect1_backgroundBlur_904_2140"/>
<feBlend mode="normal" in="SourceGraphic" in2="effect1_backgroundBlur_904_2140" result="shape"/>
</filter>
</defs>
</svg>
