<svg width="127" height="7486" viewBox="0 0 127 7486" fill="none" xmlns="http://www.w3.org/2000/svg">
<path d="M-0.00012207 0V625.302H126.065V0H-0.00012207Z" fill="#FDE829"/>
<path d="M9.37769 -0.00012207V625.302H116.689V-0.00012207H9.37769Z" fill="#42424A"/>
<path d="M59.5154 49.8773H66.5535V26.9654H59.5154V49.8773Z" fill="white"/>
<path d="M59.5154 101.864H66.5535V78.9551H59.5154V101.864Z" fill="white"/>
<path d="M59.5154 153.853H66.5535V130.941H59.5154V153.853Z" fill="white"/>
<path d="M59.5154 205.843H66.5535V182.931H59.5154V205.843Z" fill="white"/>
<path d="M58.0685 266.765H64.9354V244.413H58.0685V266.765Z" fill="white"/>
<path d="M58.0685 317.492H64.9354V295.137H58.0685V317.492Z" fill="white"/>
<path d="M59.5154 361.81H66.5535V338.901H59.5154V361.81Z" fill="white"/>
<path d="M59.5154 413.798H66.5535V390.887H59.5154V413.798Z" fill="white"/>
<path d="M59.5154 465.789H66.5535V442.876H59.5154V465.789Z" fill="white"/>
<path d="M59.5154 517.774H66.5535V494.867H59.5154V517.774Z" fill="white"/>
<path d="M59.5154 569.766H66.5535V546.854H59.5154V569.766Z" fill="white"/>
<path d="M59.5154 621.753H66.5535V598.844H59.5154V621.753Z" fill="white"/>
<rect x="12" y="293.312" width="103" height="41" fill="#42424A"/>
<g opacity="0.9" filter="url(#filter0_b_634_1043)">
<path d="M20.6504 324.381H25.813V292H20.6504V324.381Z" fill="white"/>
</g>
<g opacity="0.9" filter="url(#filter1_b_634_1043)">
<path d="M34.0731 324.381H39.2357V292H34.0731V324.381Z" fill="white"/>
</g>
<g opacity="0.9" filter="url(#filter2_b_634_1043)">
<path d="M47.4958 324.381H52.6584V292H47.4958V324.381Z" fill="white"/>
</g>
<g opacity="0.9" filter="url(#filter3_b_634_1043)">
<path d="M60.9186 324.381H66.0812V292H60.9186V324.381Z" fill="white"/>
</g>
<g opacity="0.9" filter="url(#filter4_b_634_1043)">
<path d="M74.3412 324.381H79.5038V292H74.3412V324.381Z" fill="white"/>
</g>
<g opacity="0.9" filter="url(#filter5_b_634_1043)">
<path d="M87.7642 324.381H92.9268V292H87.7642V324.381Z" fill="white"/>
</g>
<g opacity="0.9" filter="url(#filter6_b_634_1043)">
<path d="M101.187 324.381H106.349V292H101.187V324.381Z" fill="white"/>
</g>
<path d="M-0.00012207 625.303V1250.6H126.065V625.303H-0.00012207Z" fill="#FDE829"/>
<path d="M9.37769 625.303V1250.6H116.689V625.303H9.37769Z" fill="#42424A"/>
<path d="M59.5154 675.18H66.5535V652.268H59.5154V675.18Z" fill="white"/>
<path d="M59.5154 727.167H66.5535V704.258H59.5154V727.167Z" fill="white"/>
<path d="M59.5154 779.156H66.5535V756.244H59.5154V779.156Z" fill="white"/>
<path d="M59.5154 831.145H66.5535V808.233H59.5154V831.145Z" fill="white"/>
<path d="M58.0682 892.067H64.9352V869.716H58.0682V892.067Z" fill="white"/>
<path d="M58.0682 942.794H64.9352V920.44H58.0682V942.794Z" fill="white"/>
<path d="M59.5154 987.113H66.5535V964.203H59.5154V987.113Z" fill="white"/>
<path d="M59.5154 1039.1H66.5535V1016.19H59.5154V1039.1Z" fill="white"/>
<path d="M59.5154 1091.09H66.5535V1068.18H59.5154V1091.09Z" fill="white"/>
<path d="M59.5154 1143.08H66.5535V1120.17H59.5154V1143.08Z" fill="white"/>
<path d="M59.5154 1195.07H66.5535V1172.16H59.5154V1195.07Z" fill="white"/>
<path d="M59.5154 1247.06H66.5535V1224.15H59.5154V1247.06Z" fill="white"/>
<path d="M-0.00012207 1247V1872.3H126.065V1247H-0.00012207Z" fill="#FDE829"/>
<path d="M9.37769 1247V1872.3H116.689V1247H9.37769Z" fill="#42424A"/>
<path d="M59.5154 1296.88H66.5535V1273.97H59.5154V1296.88Z" fill="white"/>
<path d="M59.5154 1348.86H66.5535V1325.96H59.5154V1348.86Z" fill="white"/>
<path d="M59.5154 1400.85H66.5535V1377.94H59.5154V1400.85Z" fill="white"/>
<path d="M59.5154 1452.84H66.5535V1429.93H59.5154V1452.84Z" fill="white"/>
<path d="M58.0685 1513.76H64.9354V1491.41H58.0685V1513.76Z" fill="white"/>
<path d="M58.0685 1564.49H64.9354V1542.14H58.0685V1564.49Z" fill="white"/>
<path d="M59.5154 1608.81H66.5535V1585.9H59.5154V1608.81Z" fill="white"/>
<path d="M59.5154 1660.8H66.5535V1637.89H59.5154V1660.8Z" fill="white"/>
<path d="M59.5154 1712.79H66.5535V1689.88H59.5154V1712.79Z" fill="white"/>
<path d="M59.5154 1764.77H66.5535V1741.87H59.5154V1764.77Z" fill="white"/>
<path d="M59.5154 1816.77H66.5535V1793.85H59.5154V1816.77Z" fill="white"/>
<path d="M59.5154 1868.75H66.5535V1845.84H59.5154V1868.75Z" fill="white"/>
<path d="M-0.00012207 1872.3V2497.6H126.065V1872.3H-0.00012207Z" fill="#FDE829"/>
<path d="M9.37769 1872.3V2497.6H116.689V1872.3H9.37769Z" fill="#42424A"/>
<path d="M59.5154 1922.18H66.5535V1899.27H59.5154V1922.18Z" fill="white"/>
<path d="M59.5154 1974.17H66.5535V1951.26H59.5154V1974.17Z" fill="white"/>
<path d="M59.5154 2026.16H66.5535V2003.24H59.5154V2026.16Z" fill="white"/>
<path d="M59.5154 2078.15H66.5535V2055.23H59.5154V2078.15Z" fill="white"/>
<path d="M58.0682 2139.07H64.9352V2116.72H58.0682V2139.07Z" fill="white"/>
<path d="M58.0682 2189.79H64.9352V2167.44H58.0682V2189.79Z" fill="white"/>
<path d="M59.5154 2234.11H66.5535V2211.2H59.5154V2234.11Z" fill="white"/>
<path d="M59.5154 2286.1H66.5535V2263.19H59.5154V2286.1Z" fill="white"/>
<path d="M59.5154 2338.09H66.5535V2315.18H59.5154V2338.09Z" fill="white"/>
<path d="M59.5154 2390.08H66.5535V2367.17H59.5154V2390.08Z" fill="white"/>
<path d="M59.5154 2442.07H66.5535V2419.16H59.5154V2442.07Z" fill="white"/>
<path d="M59.5154 2494.06H66.5535V2471.15H59.5154V2494.06Z" fill="white"/>
<path d="M-0.00012207 2494V3119.3H126.065V2494H-0.00012207Z" fill="#FDE829"/>
<path d="M9.37769 2494V3119.3H116.689V2494H9.37769Z" fill="#42424A"/>
<path d="M59.5154 2543.88H66.5535V2520.97H59.5154V2543.88Z" fill="white"/>
<path d="M59.5154 2595.86H66.5535V2572.96H59.5154V2595.86Z" fill="white"/>
<path d="M59.5154 2647.85H66.5535V2624.94H59.5154V2647.85Z" fill="white"/>
<path d="M59.5154 2699.84H66.5535V2676.93H59.5154V2699.84Z" fill="white"/>
<path d="M58.0685 2760.76H64.9354V2738.41H58.0685V2760.76Z" fill="white"/>
<path d="M58.0685 2811.49H64.9354V2789.14H58.0685V2811.49Z" fill="white"/>
<path d="M59.5154 2855.81H66.5535V2832.9H59.5154V2855.81Z" fill="white"/>
<path d="M59.5154 2907.8H66.5535V2884.89H59.5154V2907.8Z" fill="white"/>
<path d="M59.5154 2959.79H66.5535V2936.88H59.5154V2959.79Z" fill="white"/>
<path d="M59.5154 3011.77H66.5535V2988.87H59.5154V3011.77Z" fill="white"/>
<path d="M59.5154 3063.77H66.5535V3040.85H59.5154V3063.77Z" fill="white"/>
<path d="M59.5154 3115.75H66.5535V3092.84H59.5154V3115.75Z" fill="white"/>
<path d="M-0.00012207 3119.3V3744.6H126.065V3119.3H-0.00012207Z" fill="#FDE829"/>
<path d="M9.37769 3119.3V3744.6H116.689V3119.3H9.37769Z" fill="#42424A"/>
<path d="M59.5154 3169.18H66.5535V3146.27H59.5154V3169.18Z" fill="white"/>
<path d="M59.5154 3221.17H66.5535V3198.26H59.5154V3221.17Z" fill="white"/>
<path d="M59.5154 3273.16H66.5535V3250.24H59.5154V3273.16Z" fill="white"/>
<path d="M59.5154 3325.15H66.5535V3302.23H59.5154V3325.15Z" fill="white"/>
<path d="M58.0682 3386.07H64.9352V3363.72H58.0682V3386.07Z" fill="white"/>
<path d="M58.0682 3436.79H64.9352V3414.44H58.0682V3436.79Z" fill="white"/>
<path d="M59.5154 3481.11H66.5535V3458.2H59.5154V3481.11Z" fill="white"/>
<path d="M59.5154 3533.1H66.5535V3510.19H59.5154V3533.1Z" fill="white"/>
<path d="M59.5154 3585.09H66.5535V3562.18H59.5154V3585.09Z" fill="white"/>
<path d="M59.5154 3637.08H66.5535V3614.17H59.5154V3637.08Z" fill="white"/>
<path d="M59.5154 3689.07H66.5535V3666.16H59.5154V3689.07Z" fill="white"/>
<path d="M59.5154 3741.06H66.5535V3718.15H59.5154V3741.06Z" fill="white"/>
<path d="M-0.00012207 3741V4366.3H126.065V3741H-0.00012207Z" fill="#FDE829"/>
<path d="M9.37769 3741V4366.3H116.689V3741H9.37769Z" fill="#42424A"/>
<path d="M59.5154 3790.88H66.5535V3767.97H59.5154V3790.88Z" fill="white"/>
<path d="M59.5154 3842.86H66.5535V3819.96H59.5154V3842.86Z" fill="white"/>
<path d="M59.5154 3894.85H66.5535V3871.94H59.5154V3894.85Z" fill="white"/>
<path d="M59.5154 3946.84H66.5535V3923.93H59.5154V3946.84Z" fill="white"/>
<path d="M58.0685 4007.76H64.9354V3985.41H58.0685V4007.76Z" fill="white"/>
<path d="M58.0685 4058.49H64.9354V4036.14H58.0685V4058.49Z" fill="white"/>
<path d="M59.5154 4102.81H66.5535V4079.9H59.5154V4102.81Z" fill="white"/>
<path d="M59.5154 4154.8H66.5535V4131.89H59.5154V4154.8Z" fill="white"/>
<path d="M59.5154 4206.79H66.5535V4183.88H59.5154V4206.79Z" fill="white"/>
<path d="M59.5154 4258.77H66.5535V4235.87H59.5154V4258.77Z" fill="white"/>
<path d="M59.5154 4310.77H66.5535V4287.85H59.5154V4310.77Z" fill="white"/>
<path d="M59.5154 4362.75H66.5535V4339.84H59.5154V4362.75Z" fill="white"/>
<path d="M-0.00012207 4366.3V4991.6H126.065V4366.3H-0.00012207Z" fill="#FDE829"/>
<path d="M9.37769 4366.3V4991.6H116.689V4366.3H9.37769Z" fill="#42424A"/>
<path d="M59.5154 4416.18H66.5535V4393.27H59.5154V4416.18Z" fill="white"/>
<path d="M59.5154 4468.17H66.5535V4445.26H59.5154V4468.17Z" fill="white"/>
<path d="M59.5154 4520.16H66.5535V4497.24H59.5154V4520.16Z" fill="white"/>
<path d="M59.5154 4572.15H66.5535V4549.23H59.5154V4572.15Z" fill="white"/>
<path d="M58.0682 4633.07H64.9352V4610.72H58.0682V4633.07Z" fill="white"/>
<path d="M58.0682 4683.79H64.9352V4661.44H58.0682V4683.79Z" fill="white"/>
<path d="M59.5154 4728.11H66.5535V4705.2H59.5154V4728.11Z" fill="white"/>
<path d="M59.5154 4780.1H66.5535V4757.19H59.5154V4780.1Z" fill="white"/>
<path d="M59.5154 4832.09H66.5535V4809.18H59.5154V4832.09Z" fill="white"/>
<path d="M59.5154 4884.08H66.5535V4861.17H59.5154V4884.08Z" fill="white"/>
<path d="M59.5154 4936.07H66.5535V4913.16H59.5154V4936.07Z" fill="white"/>
<path d="M59.5154 4988.06H66.5535V4965.15H59.5154V4988.06Z" fill="white"/>
<path d="M-0.00012207 4988V5613.3H126.065V4988H-0.00012207Z" fill="#FDE829"/>
<path d="M9.37769 4988V5613.3H116.689V4988H9.37769Z" fill="#42424A"/>
<path d="M59.5154 5037.88H66.5535V5014.97H59.5154V5037.88Z" fill="white"/>
<path d="M59.5154 5089.86H66.5535V5066.96H59.5154V5089.86Z" fill="white"/>
<path d="M59.5154 5141.85H66.5535V5118.94H59.5154V5141.85Z" fill="white"/>
<path d="M59.5154 5193.84H66.5535V5170.93H59.5154V5193.84Z" fill="white"/>
<path d="M58.0685 5254.76H64.9354V5232.41H58.0685V5254.76Z" fill="white"/>
<path d="M58.0685 5305.49H64.9354V5283.14H58.0685V5305.49Z" fill="white"/>
<path d="M59.5154 5349.81H66.5535V5326.9H59.5154V5349.81Z" fill="white"/>
<path d="M59.5154 5401.8H66.5535V5378.89H59.5154V5401.8Z" fill="white"/>
<path d="M59.5154 5453.79H66.5535V5430.88H59.5154V5453.79Z" fill="white"/>
<path d="M59.5154 5505.77H66.5535V5482.87H59.5154V5505.77Z" fill="white"/>
<path d="M59.5154 5557.77H66.5535V5534.85H59.5154V5557.77Z" fill="white"/>
<path d="M59.5154 5609.75H66.5535V5586.84H59.5154V5609.75Z" fill="white"/>
<path d="M-0.00012207 5613.3V6238.6H126.065V5613.3H-0.00012207Z" fill="#FDE829"/>
<path d="M9.37769 5613.3V6238.6H116.689V5613.3H9.37769Z" fill="#42424A"/>
<path d="M59.5154 5663.18H66.5535V5640.27H59.5154V5663.18Z" fill="white"/>
<path d="M59.5154 5715.17H66.5535V5692.26H59.5154V5715.17Z" fill="white"/>
<path d="M59.5154 5767.16H66.5535V5744.24H59.5154V5767.16Z" fill="white"/>
<path d="M59.5154 5819.15H66.5535V5796.23H59.5154V5819.15Z" fill="white"/>
<path d="M58.0682 5880.07H64.9352V5857.72H58.0682V5880.07Z" fill="white"/>
<path d="M58.0682 5930.79H64.9352V5908.44H58.0682V5930.79Z" fill="white"/>
<path d="M59.5154 5975.11H66.5535V5952.2H59.5154V5975.11Z" fill="white"/>
<path d="M59.5154 6027.1H66.5535V6004.19H59.5154V6027.1Z" fill="white"/>
<path d="M59.5154 6079.09H66.5535V6056.18H59.5154V6079.09Z" fill="white"/>
<path d="M59.5154 6131.08H66.5535V6108.17H59.5154V6131.08Z" fill="white"/>
<path d="M59.5154 6183.07H66.5535V6160.16H59.5154V6183.07Z" fill="white"/>
<path d="M59.5154 6235.06H66.5535V6212.15H59.5154V6235.06Z" fill="white"/>
<path d="M-0.00012207 6235V6860.3H126.065V6235H-0.00012207Z" fill="#FDE829"/>
<path d="M9.37769 6235V6860.3H116.689V6235H9.37769Z" fill="#42424A"/>
<path d="M59.5154 6284.88H66.5535V6261.97H59.5154V6284.88Z" fill="white"/>
<path d="M59.5154 6336.86H66.5535V6313.96H59.5154V6336.86Z" fill="white"/>
<path d="M59.5154 6388.85H66.5535V6365.94H59.5154V6388.85Z" fill="white"/>
<path d="M59.5154 6440.84H66.5535V6417.93H59.5154V6440.84Z" fill="white"/>
<path d="M58.0685 6501.76H64.9354V6479.41H58.0685V6501.76Z" fill="white"/>
<path d="M58.0685 6552.49H64.9354V6530.14H58.0685V6552.49Z" fill="white"/>
<path d="M59.5154 6596.81H66.5535V6573.9H59.5154V6596.81Z" fill="white"/>
<path d="M59.5154 6648.8H66.5535V6625.89H59.5154V6648.8Z" fill="white"/>
<path d="M59.5154 6700.79H66.5535V6677.88H59.5154V6700.79Z" fill="white"/>
<path d="M59.5154 6752.77H66.5535V6729.87H59.5154V6752.77Z" fill="white"/>
<path d="M59.5154 6804.77H66.5535V6781.85H59.5154V6804.77Z" fill="white"/>
<path d="M59.5154 6856.75H66.5535V6833.84H59.5154V6856.75Z" fill="white"/>
<path d="M-0.00012207 6860.3V7485.6H126.065V6860.3H-0.00012207Z" fill="#FDE829"/>
<path d="M9.37769 6860.3V7485.6H116.689V6860.3H9.37769Z" fill="#42424A"/>
<path d="M59.5154 6910.18H66.5535V6887.27H59.5154V6910.18Z" fill="white"/>
<path d="M59.5154 6962.17H66.5535V6939.26H59.5154V6962.17Z" fill="white"/>
<path d="M59.5154 7014.16H66.5535V6991.24H59.5154V7014.16Z" fill="white"/>
<path d="M59.5154 7066.15H66.5535V7043.23H59.5154V7066.15Z" fill="white"/>
<path d="M58.0682 7127.07H64.9352V7104.72H58.0682V7127.07Z" fill="white"/>
<path d="M58.0682 7177.79H64.9352V7155.44H58.0682V7177.79Z" fill="white"/>
<path d="M59.5154 7222.11H66.5535V7199.2H59.5154V7222.11Z" fill="white"/>
<path d="M59.5154 7274.1H66.5535V7251.19H59.5154V7274.1Z" fill="white"/>
<path d="M59.5154 7326.09H66.5535V7303.18H59.5154V7326.09Z" fill="white"/>
<path d="M59.5154 7378.08H66.5535V7355.17H59.5154V7378.08Z" fill="white"/>
<path d="M59.5154 7430.07H66.5535V7407.16H59.5154V7430.07Z" fill="white"/>
<path d="M59.5154 7482.06H66.5535V7459.15H59.5154V7482.06Z" fill="white"/>
<defs>
<filter id="filter0_b_634_1043" x="16.6504" y="288" width="13.1626" height="40.3812" filterUnits="userSpaceOnUse" color-interpolation-filters="sRGB">
<feFlood flood-opacity="0" result="BackgroundImageFix"/>
<feGaussianBlur in="BackgroundImageFix" stdDeviation="2"/>
<feComposite in2="SourceAlpha" operator="in" result="effect1_backgroundBlur_634_1043"/>
<feBlend mode="normal" in="SourceGraphic" in2="effect1_backgroundBlur_634_1043" result="shape"/>
</filter>
<filter id="filter1_b_634_1043" x="30.0731" y="288" width="13.1626" height="40.3812" filterUnits="userSpaceOnUse" color-interpolation-filters="sRGB">
<feFlood flood-opacity="0" result="BackgroundImageFix"/>
<feGaussianBlur in="BackgroundImageFix" stdDeviation="2"/>
<feComposite in2="SourceAlpha" operator="in" result="effect1_backgroundBlur_634_1043"/>
<feBlend mode="normal" in="SourceGraphic" in2="effect1_backgroundBlur_634_1043" result="shape"/>
</filter>
<filter id="filter2_b_634_1043" x="43.4958" y="288" width="13.1626" height="40.3812" filterUnits="userSpaceOnUse" color-interpolation-filters="sRGB">
<feFlood flood-opacity="0" result="BackgroundImageFix"/>
<feGaussianBlur in="BackgroundImageFix" stdDeviation="2"/>
<feComposite in2="SourceAlpha" operator="in" result="effect1_backgroundBlur_634_1043"/>
<feBlend mode="normal" in="SourceGraphic" in2="effect1_backgroundBlur_634_1043" result="shape"/>
</filter>
<filter id="filter3_b_634_1043" x="56.9186" y="288" width="13.1626" height="40.3812" filterUnits="userSpaceOnUse" color-interpolation-filters="sRGB">
<feFlood flood-opacity="0" result="BackgroundImageFix"/>
<feGaussianBlur in="BackgroundImageFix" stdDeviation="2"/>
<feComposite in2="SourceAlpha" operator="in" result="effect1_backgroundBlur_634_1043"/>
<feBlend mode="normal" in="SourceGraphic" in2="effect1_backgroundBlur_634_1043" result="shape"/>
</filter>
<filter id="filter4_b_634_1043" x="70.3412" y="288" width="13.1626" height="40.3812" filterUnits="userSpaceOnUse" color-interpolation-filters="sRGB">
<feFlood flood-opacity="0" result="BackgroundImageFix"/>
<feGaussianBlur in="BackgroundImageFix" stdDeviation="2"/>
<feComposite in2="SourceAlpha" operator="in" result="effect1_backgroundBlur_634_1043"/>
<feBlend mode="normal" in="SourceGraphic" in2="effect1_backgroundBlur_634_1043" result="shape"/>
</filter>
<filter id="filter5_b_634_1043" x="83.7642" y="288" width="13.1626" height="40.3812" filterUnits="userSpaceOnUse" color-interpolation-filters="sRGB">
<feFlood flood-opacity="0" result="BackgroundImageFix"/>
<feGaussianBlur in="BackgroundImageFix" stdDeviation="2"/>
<feComposite in2="SourceAlpha" operator="in" result="effect1_backgroundBlur_634_1043"/>
<feBlend mode="normal" in="SourceGraphic" in2="effect1_backgroundBlur_634_1043" result="shape"/>
</filter>
<filter id="filter6_b_634_1043" x="97.1869" y="288" width="13.1626" height="40.3812" filterUnits="userSpaceOnUse" color-interpolation-filters="sRGB">
<feFlood flood-opacity="0" result="BackgroundImageFix"/>
<feGaussianBlur in="BackgroundImageFix" stdDeviation="2"/>
<feComposite in2="SourceAlpha" operator="in" result="effect1_backgroundBlur_634_1043"/>
<feBlend mode="normal" in="SourceGraphic" in2="effect1_backgroundBlur_634_1043" result="shape"/>
</filter>
</defs>
</svg>
