<svg width="153" height="3772" viewBox="0 0 153 3772" fill="none" xmlns="http://www.w3.org/2000/svg">
<g filter="url(#filter0_dd_1_2708)">
<g filter="url(#filter1_d_1_2708)">
<path d="M10 9.99998V632H133V9.99998H10Z" fill="#E4E5E2"/>
<path d="M19.15 9.99998V632H123.852V9.99998H19.15Z" fill="#42424A"/>
<path d="M68.0686 59.6139H74.9355V36.8231H68.0686V59.6139Z" fill="#E4E5E2"/>
<path d="M68.0686 111.326H74.9355V88.5382H68.0686V111.326Z" fill="#E4E5E2"/>
<path d="M68.0686 163.041H74.9355V140.25H68.0686V163.041Z" fill="#E4E5E2"/>
<path d="M68.0686 214.755H74.9355V191.965H68.0686V214.755Z" fill="#E4E5E2"/>
<path d="M68.0686 266.468H74.9355V243.681H68.0686V266.468Z" fill="#E4E5E2"/>
<path d="M68.0686 318.185H74.9355V295.394H68.0686V318.185Z" fill="#E4E5E2"/>
<path d="M68.0686 369.899H74.9355V347.111H68.0686V369.899Z" fill="#E4E5E2"/>
<path d="M68.0686 421.613H74.9355V398.822H68.0686V421.613Z" fill="#E4E5E2"/>
<path d="M68.0686 473.329H74.9355V450.537H68.0686V473.329Z" fill="#E4E5E2"/>
<path d="M68.0686 525.04H74.9355V502.253H68.0686V525.04Z" fill="#E4E5E2"/>
<path d="M68.0686 576.756H74.9355V553.966H68.0686V576.756Z" fill="#E4E5E2"/>
<path d="M68.0686 628.469H74.9355V605.681H68.0686V628.469Z" fill="#E4E5E2"/>
<path d="M10 632V1254H133V632H10Z" fill="#E4E5E2"/>
<path d="M19.15 632V1254H123.852V632H19.15Z" fill="#42424A"/>
<path d="M68.0686 681.614H74.9355V658.823H68.0686V681.614Z" fill="#E4E5E2"/>
<path d="M68.0686 733.326H74.9355V710.538H68.0686V733.326Z" fill="#E4E5E2"/>
<path d="M68.0686 785.041H74.9355V762.25H68.0686V785.041Z" fill="#E4E5E2"/>
<path d="M68.0686 836.755H74.9355V813.965H68.0686V836.755Z" fill="#E4E5E2"/>
<path d="M68.0686 888.468H74.9355V865.681H68.0686V888.468Z" fill="#E4E5E2"/>
<path d="M68.0686 940.185H74.9355V917.394H68.0686V940.185Z" fill="#E4E5E2"/>
<path d="M68.0686 991.899H74.9355V969.111H68.0686V991.899Z" fill="#E4E5E2"/>
<path d="M68.0686 1043.61H74.9355V1020.82H68.0686V1043.61Z" fill="#E4E5E2"/>
<path d="M68.0686 1095.33H74.9355V1072.54H68.0686V1095.33Z" fill="#E4E5E2"/>
<path d="M68.0686 1147.04H74.9355V1124.25H68.0686V1147.04Z" fill="#E4E5E2"/>
<path d="M68.0686 1198.76H74.9355V1175.97H68.0686V1198.76Z" fill="#E4E5E2"/>
<path d="M68.0686 1250.47H74.9355V1227.68H68.0686V1250.47Z" fill="#E4E5E2"/>
</g>
<g filter="url(#filter2_d_1_2708)">
<path d="M10 1254V1876H133V1254H10Z" fill="#E4E5E2"/>
<path d="M19.15 1254V1876H123.852V1254H19.15Z" fill="#42424A"/>
<path d="M68.0686 1303.61H74.9355V1280.82H68.0686V1303.61Z" fill="#E4E5E2"/>
<path d="M68.0686 1355.33H74.9355V1332.54H68.0686V1355.33Z" fill="#E4E5E2"/>
<path d="M68.0686 1407.04H74.9355V1384.25H68.0686V1407.04Z" fill="#E4E5E2"/>
<path d="M68.0686 1458.76H74.9355V1435.96H68.0686V1458.76Z" fill="#E4E5E2"/>
<path d="M68.0686 1510.47H74.9355V1487.68H68.0686V1510.47Z" fill="#E4E5E2"/>
<path d="M68.0686 1562.19H74.9355V1539.39H68.0686V1562.19Z" fill="#E4E5E2"/>
<path d="M68.0686 1613.9H74.9355V1591.11H68.0686V1613.9Z" fill="#E4E5E2"/>
<path d="M68.0686 1665.61H74.9355V1642.82H68.0686V1665.61Z" fill="#E4E5E2"/>
<path d="M68.0686 1717.33H74.9355V1694.54H68.0686V1717.33Z" fill="#E4E5E2"/>
<path d="M68.0686 1769.04H74.9355V1746.25H68.0686V1769.04Z" fill="#E4E5E2"/>
<path d="M68.0686 1820.76H74.9355V1797.97H68.0686V1820.76Z" fill="#E4E5E2"/>
<path d="M68.0686 1872.47H74.9355V1849.68H68.0686V1872.47Z" fill="#E4E5E2"/>
<path d="M10 1876V2498H133V1876H10Z" fill="#E4E5E2"/>
<path d="M19.15 1876V2498H123.852V1876H19.15Z" fill="#42424A"/>
<path d="M68.0686 1925.61H74.9355V1902.82H68.0686V1925.61Z" fill="#E4E5E2"/>
<path d="M68.0686 1977.33H74.9355V1954.54H68.0686V1977.33Z" fill="#E4E5E2"/>
<path d="M68.0686 2029.04H74.9355V2006.25H68.0686V2029.04Z" fill="#E4E5E2"/>
<path d="M68.0686 2080.76H74.9355V2057.96H68.0686V2080.76Z" fill="#E4E5E2"/>
<path d="M68.0686 2132.47H74.9355V2109.68H68.0686V2132.47Z" fill="#E4E5E2"/>
<path d="M68.0686 2184.19H74.9355V2161.39H68.0686V2184.19Z" fill="#E4E5E2"/>
<path d="M68.0686 2235.9H74.9355V2213.11H68.0686V2235.9Z" fill="#E4E5E2"/>
<path d="M68.0686 2287.61H74.9355V2264.82H68.0686V2287.61Z" fill="#E4E5E2"/>
<path d="M68.0686 2339.33H74.9355V2316.54H68.0686V2339.33Z" fill="#E4E5E2"/>
<path d="M68.0686 2391.04H74.9355V2368.25H68.0686V2391.04Z" fill="#E4E5E2"/>
<path d="M68.0686 2442.76H74.9355V2419.97H68.0686V2442.76Z" fill="#E4E5E2"/>
<path d="M68.0686 2494.47H74.9355V2471.68H68.0686V2494.47Z" fill="#E4E5E2"/>
</g>
<g filter="url(#filter3_d_1_2708)">
<path d="M10 2498V3120H133V2498H10Z" fill="#E4E5E2"/>
<path d="M19.15 2498V3120H123.852V2498H19.15Z" fill="#42424A"/>
<path d="M68.0686 2547.61H74.9355V2524.82H68.0686V2547.61Z" fill="#E4E5E2"/>
<path d="M68.0686 2599.33H74.9355V2576.54H68.0686V2599.33Z" fill="#E4E5E2"/>
<path d="M68.0686 2651.04H74.9355V2628.25H68.0686V2651.04Z" fill="#E4E5E2"/>
<path d="M68.0686 2702.76H74.9355V2679.96H68.0686V2702.76Z" fill="#E4E5E2"/>
<path d="M68.0686 2754.47H74.9355V2731.68H68.0686V2754.47Z" fill="#E4E5E2"/>
<path d="M68.0686 2806.19H74.9355V2783.39H68.0686V2806.19Z" fill="#E4E5E2"/>
<path d="M68.0686 2857.9H74.9355V2835.11H68.0686V2857.9Z" fill="#E4E5E2"/>
<path d="M68.0686 2909.61H74.9355V2886.82H68.0686V2909.61Z" fill="#E4E5E2"/>
<path d="M68.0686 2961.33H74.9355V2938.54H68.0686V2961.33Z" fill="#E4E5E2"/>
<path d="M68.0686 3013.04H74.9355V2990.25H68.0686V3013.04Z" fill="#E4E5E2"/>
<path d="M68.0686 3064.76H74.9355V3041.97H68.0686V3064.76Z" fill="#E4E5E2"/>
<path d="M68.0686 3116.47H74.9355V3093.68H68.0686V3116.47Z" fill="#E4E5E2"/>
<path d="M10 3120V3742H133V3120H10Z" fill="#E4E5E2"/>
<path d="M19.15 3120V3742H123.852V3120H19.15Z" fill="#42424A"/>
<path d="M68.0686 3169.61H74.9355V3146.82H68.0686V3169.61Z" fill="#E4E5E2"/>
<path d="M68.0686 3221.33H74.9355V3198.54H68.0686V3221.33Z" fill="#E4E5E2"/>
<path d="M68.0686 3273.04H74.9355V3250.25H68.0686V3273.04Z" fill="#E4E5E2"/>
<path d="M68.0686 3324.76H74.9355V3301.96H68.0686V3324.76Z" fill="#E4E5E2"/>
<path d="M68.0686 3376.47H74.9355V3353.68H68.0686V3376.47Z" fill="#E4E5E2"/>
<path d="M68.0686 3428.19H74.9355V3405.39H68.0686V3428.19Z" fill="#E4E5E2"/>
<path d="M68.0686 3479.9H74.9355V3457.11H68.0686V3479.9Z" fill="#E4E5E2"/>
<path d="M68.0686 3531.61H74.9355V3508.82H68.0686V3531.61Z" fill="#E4E5E2"/>
<path d="M68.0686 3583.33H74.9355V3560.54H68.0686V3583.33Z" fill="#E4E5E2"/>
<path d="M68.0686 3635.04H74.9355V3612.25H68.0686V3635.04Z" fill="#E4E5E2"/>
<path d="M68.0686 3686.76H74.9355V3663.97H68.0686V3686.76Z" fill="#E4E5E2"/>
<path d="M68.0686 3738.47H74.9355V3715.68H68.0686V3738.47Z" fill="#E4E5E2"/>
</g>
</g>
<defs>
<filter id="filter0_dd_1_2708" x="6" y="10" width="131" height="3740" filterUnits="userSpaceOnUse" color-interpolation-filters="sRGB">
<feFlood flood-opacity="0" result="BackgroundImageFix"/>
<feColorMatrix in="SourceAlpha" type="matrix" values="0 0 0 0 0 0 0 0 0 0 0 0 0 0 0 0 0 0 127 0" result="hardAlpha"/>
<feOffset dy="4"/>
<feGaussianBlur stdDeviation="2"/>
<feComposite in2="hardAlpha" operator="out"/>
<feColorMatrix type="matrix" values="0 0 0 0 0 0 0 0 0 0 0 0 0 0 0 0 0 0 0.25 0"/>
<feBlend mode="normal" in2="BackgroundImageFix" result="effect1_dropShadow_1_2708"/>
<feColorMatrix in="SourceAlpha" type="matrix" values="0 0 0 0 0 0 0 0 0 0 0 0 0 0 0 0 0 0 127 0" result="hardAlpha"/>
<feOffset dy="4"/>
<feGaussianBlur stdDeviation="2"/>
<feComposite in2="hardAlpha" operator="out"/>
<feColorMatrix type="matrix" values="0 0 0 0 0 0 0 0 0 0 0 0 0 0 0 0 0 0 0.25 0"/>
<feBlend mode="normal" in2="effect1_dropShadow_1_2708" result="effect2_dropShadow_1_2708"/>
<feBlend mode="normal" in="SourceGraphic" in2="effect2_dropShadow_1_2708" result="shape"/>
</filter>
<filter id="filter1_d_1_2708" x="0" y="0" width="163" height="1284" filterUnits="userSpaceOnUse" color-interpolation-filters="sRGB">
<feFlood flood-opacity="0" result="BackgroundImageFix"/>
<feColorMatrix in="SourceAlpha" type="matrix" values="0 0 0 0 0 0 0 0 0 0 0 0 0 0 0 0 0 0 127 0" result="hardAlpha"/>
<feOffset dx="10" dy="10"/>
<feGaussianBlur stdDeviation="10"/>
<feComposite in2="hardAlpha" operator="out"/>
<feColorMatrix type="matrix" values="0 0 0 0 0 0 0 0 0 0 0 0 0 0 0 0 0 0 0.2 0"/>
<feBlend mode="normal" in2="BackgroundImageFix" result="effect1_dropShadow_1_2708"/>
<feBlend mode="normal" in="SourceGraphic" in2="effect1_dropShadow_1_2708" result="shape"/>
</filter>
<filter id="filter2_d_1_2708" x="0" y="1244" width="163" height="1284" filterUnits="userSpaceOnUse" color-interpolation-filters="sRGB">
<feFlood flood-opacity="0" result="BackgroundImageFix"/>
<feColorMatrix in="SourceAlpha" type="matrix" values="0 0 0 0 0 0 0 0 0 0 0 0 0 0 0 0 0 0 127 0" result="hardAlpha"/>
<feOffset dx="10" dy="10"/>
<feGaussianBlur stdDeviation="10"/>
<feComposite in2="hardAlpha" operator="out"/>
<feColorMatrix type="matrix" values="0 0 0 0 0 0 0 0 0 0 0 0 0 0 0 0 0 0 0.2 0"/>
<feBlend mode="normal" in2="BackgroundImageFix" result="effect1_dropShadow_1_2708"/>
<feBlend mode="normal" in="SourceGraphic" in2="effect1_dropShadow_1_2708" result="shape"/>
</filter>
<filter id="filter3_d_1_2708" x="0" y="2488" width="163" height="1284" filterUnits="userSpaceOnUse" color-interpolation-filters="sRGB">
<feFlood flood-opacity="0" result="BackgroundImageFix"/>
<feColorMatrix in="SourceAlpha" type="matrix" values="0 0 0 0 0 0 0 0 0 0 0 0 0 0 0 0 0 0 127 0" result="hardAlpha"/>
<feOffset dx="10" dy="10"/>
<feGaussianBlur stdDeviation="10"/>
<feComposite in2="hardAlpha" operator="out"/>
<feColorMatrix type="matrix" values="0 0 0 0 0 0 0 0 0 0 0 0 0 0 0 0 0 0 0.2 0"/>
<feBlend mode="normal" in2="BackgroundImageFix" result="effect1_dropShadow_1_2708"/>
<feBlend mode="normal" in="SourceGraphic" in2="effect1_dropShadow_1_2708" result="shape"/>
</filter>
</defs>
</svg>
